<svg id="Layer_5" enable-background="new 0 0 64 64" height="512" viewBox="0 0 64 64" width="512" xmlns="http://www.w3.org/2000/svg"><path d="m47 58v4h-30v-4h10 10z" fill="#969faa"/><g fill="#aab2bd"><path d="m37 54v4h-10v-4-4h10z"/><path d="m18.45 55.11c.34-.68 1.03-1.11 1.79-1.11h6.76v4h-10z"/><path d="m45.55 55.11 1.45 2.89h-10v-4h6.76c.76 0 1.45.43 1.79 1.11z"/></g><path d="m2 42v4c0 2.21 1.79 4 4 4h21 10 21c2.21 0 4-1.79 4-4v-4z" fill="#ccd1d9"/><path d="m8 12v30h-6v-26c0-2.21 1.79-4 4-4z" fill="#69d6f4"/><path d="m62 16v26h-6v-30h2c2.21 0 4 1.79 4 4z" fill="#69d6f4"/><path d="m23 42v2c0 1.1.9 2 2 2h14c1.1 0 2-.9 2-2v-2z" fill="#fcd770"/><path d="m56 12v30h-15-6-6-6-15v-30-2h15l2-2h31z" fill="#e6e9ed"/><path d="m52 32v6h-6v-6h3z" fill="#5cd6b3"/><path d="m36 32v6h-6v-6h3z" fill="#4fc1e9"/><path d="m46 25-5 3-5-3 5-3z" fill="#fcd770"/><path d="m48 12v4h-7-7v-4z" fill="#ff826e"/><path d="m12 14h14v24h-14z" fill="#5cd6b3"/><path d="m8 10v-6c0-1.1.9-2 2-2h44c1.1 0 2 .9 2 2v4h-31l-2 2z" fill="#fcd770"/><path d="m58 11h-1v-7c0-1.654-1.346-3-3-3h-44c-1.654 0-3 1.346-3 3v7h-1c-2.757 0-5 2.243-5 5v30c0 2.757 2.243 5 5 5h20v2h-5.764c-1.144 0-2.172.635-2.684 1.658l-1.552 3.106v5.236h32v-5.236l-1.553-3.106c-.511-1.023-1.54-1.658-2.683-1.658h-5.764v-2h20c2.757 0 5-2.243 5-5v-30c0-2.757-2.243-5-5-5zm0 2c1.654 0 3 1.346 3 3v25h-4v-28zm-34 30h4v2h-3c-.552 0-1-.449-1-1zm6 0h4v2h-4zm6 0h4v1c0 .551-.448 1-1 1h-3zm-27-2v-30h14.414l2-2h29.586v32zm1-38h44c.552 0 1 .449 1 1v3h-30.414l-2 2h-13.586v-5c0-.551.448-1 1-1zm-4 10h1v28h-4v-25c0-1.654 1.346-3 3-3zm14.236 42h5.764v2h-7.382l.724-1.447c.171-.341.513-.553.894-.553zm-2.236 6v-2h28v2zm25.764-6c.381 0 .724.212.895.553l.723 1.447h-7.382v-2zm-7.764 2h-8v-6h8zm22-8h-52c-1.654 0-3-1.346-3-3v-3h19v1c0 1.654 1.346 3 3 3h14c1.654 0 3-1.346 3-3v-1h19v3c0 1.654-1.346 3-3 3z"/><path d="m11 5h2v2h-2z"/><path d="m19 5h2v2h-2z"/><path d="m15 5h2v2h-2z"/><path d="m50 31v-7h-3.723l-4.277-2.566v-4.434h7v-6h-16v6h7v4.434l-4.277 2.566h-3.723v7h-3v8h8v-8h-3v-5h1.723l5.277 3.166 5.277-3.166h1.723v5h-3v8h8v-8zm-15-18h12v2h-12zm0 24h-4v-4h4zm6-10.166-3.057-1.834 3.057-1.834 3.057 1.834zm10 10.166h-4v-4h4z"/><path d="m11 39h16v-26h-16zm2-24h12v22h-12z"/><path d="m15 17h8v2h-8z"/><path d="m15 21h8v2h-8z"/><path d="m15 25h8v2h-8z"/><path d="m15 29h8v2h-8z"/><path d="m15 33h8v2h-8z"/></svg>