<svg id="Layer_5" enable-background="new 0 0 64 64" height="512" viewBox="0 0 64 64" width="512" xmlns="http://www.w3.org/2000/svg"><path d="m20 51v6c0 .55-.45 1-1 1h-2c-.55 0-1-.45-1-1v-6c0-.55.45-1 1-1h2c.55 0 1 .45 1 1z" fill="#e6e9ed"/><path d="m40.49 28c-1.25 1.57-2.8 2.89-4.55 3.89-2.34 1.34-5.05 2.11-7.94 2.11-3.14 0-6.07-.9-8.54-2.46l-7.46 8.89v19.57c0 1.1.9 2 2 2h14 32c1.1 0 2-.9 2-2v-6-26z" fill="#e6e9ed"/><path d="m57 32h-9-12v15c0 .34.18.65.44.83.16.11.35.17.56.17h9 11c.55 0 1-.45 1-1v-14c0-.55-.45-1-1-1z" fill="#ff826e"/><path d="m62 24v4h-21.51c1.4-1.74 2.43-3.78 3.01-6h16.5c1.1 0 2 .9 2 2z" fill="#5cd6b3"/><path d="m19.46 31.54-7.46 8.89-1.57 1.87c-.91 1.08-2.24 1.7-3.66 1.7-1.31 0-2.51-.54-3.37-1.4s-1.4-2.06-1.4-3.37c0-1.42.62-2.75 1.7-3.66l10.76-9.03c1.28 2.01 2.99 3.72 5 5z" fill="#969faa"/><path d="m19.46 31.54c-2.01-1.28-3.72-2.99-5-5-1.56-2.47-2.46-5.4-2.46-8.54 0-8.84 7.16-16 16-16s16 7.16 16 16c0 1.38-.17 2.72-.5 4-.58 2.22-1.61 4.26-3.01 6-1.25 1.57-2.8 2.89-4.55 3.89-2.34 1.34-5.05 2.11-7.94 2.11-3.14 0-6.07-.9-8.54-2.46z" fill="#fcd770"/><path d="m28 6c-6.63 0-12 5.37-12 12 0 .83.08 1.64.24 2.42 1.12 5.47 5.96 9.58 11.76 9.58s10.64-4.11 11.76-9.58c.16-.78.24-1.59.24-2.42 0-6.63-5.37-12-12-12z" fill="#69d6f4"/><path d="m57 57h2v2h-2z"/><path d="m53 57h2v2h-2z"/><path d="m23 23h2v2h-2z"/><path d="m31 23h2v2h-2z"/><path d="m27 23h2v2h-2z"/><path d="m60 21h-15.281c.174-.976.281-1.975.281-3 0-9.374-7.626-17-17-17s-17 7.626-17 17c0 3.017.798 5.847 2.182 8.306l-10.121 8.497c-1.31 1.1-2.061 2.712-2.061 4.423 0 3.184 2.591 5.774 5.774 5.774 1.614 0 3.135-.675 4.226-1.852v16.852c0 1.654 1.346 3 3 3h46c1.654 0 3-1.346 3-3v-36c0-1.654-1.346-3-3-3zm0 2c.552 0 1 .449 1 1v3h-18.604c.777-1.239 1.412-2.575 1.851-4zm-32-20c8.271 0 15 6.729 15 15 0 5.558-3.045 10.409-7.548 13h-.452v.256c-2.092 1.109-4.472 1.744-7 1.744-8.271 0-15-6.729-15-15s6.729-15 15-15zm-18.335 38.653c-.72.856-1.772 1.347-2.891 1.347-2.081 0-3.774-1.693-3.774-3.774 0-1.118.491-2.172 1.347-2.891l9.932-8.339c1.043 1.427 2.299 2.684 3.726 3.726zm50.335 19.347h-46c-.552 0-1-.449-1-1v-19.209l2.158-2.57c-.102.24-.158.503-.158.779v6c0 1.103.897 2 2 2h2c1.103 0 2-.897 2-2v-6c0-1.103-.897-2-2-2h-2c-.403 0-.778.122-1.092.328l3.787-4.51c2.459 1.384 5.289 2.182 8.305 2.182 2.497 0 4.862-.555 7-1.526v13.526c0 1.103.897 2 2 2h20c1.103 0 2-.897 2-2v-14c0-1.103-.897-2-2-2h-18.068c.724-.609 1.393-1.28 2.006-2h20.062v31c0 .551-.448 1-1 1zm-43-16v-6h2l.001 6zm20-12h20v14h-20z"/><path d="m9.465 34.536h2v2h-2z" transform="matrix(.707 -.707 .707 .707 -22.062 17.808)"/><path d="m12.293 31.707h2v2h-2z" transform="matrix(.707 -.707 .707 .707 -19.234 18.979)"/><path d="m6.722 37.328h1.899v2h-1.899z" transform="matrix(.707 -.707 .707 .707 -24.855 16.651)"/><path d="m28 31c7.168 0 13-5.832 13-13s-5.832-13-13-13-13 5.832-13 13 5.832 13 13 13zm0-24c6.065 0 11 4.935 11 11s-4.935 11-11 11-11-4.935-11-11 4.935-11 11-11z"/><path d="m41.901 39h10.198v2h-10.198z" transform="matrix(.196 -.981 .981 .196 -1.448 78.233)"/><path d="m49.455 37.795 2.895 2.205-2.895 2.205 1.211 1.59 4.984-3.795-4.984-3.795z"/><path d="m43.334 36.205-4.984 3.795 4.984 3.795 1.211-1.59-2.895-2.205 2.895-2.205z"/><path d="m23 37h2v10h-2z"/><path d="m19 49h-2c-1.103 0-2 .897-2 2v6c0 1.103.897 2 2 2h2c1.103 0 2-.897 2-2v-6c0-1.103-.897-2-2-2zm0 8h-2v-6h2z"/><path d="m23 49h2v10h-2z"/><path d="m35 49h-2c-1.103 0-2 .897-2 2v6c0 1.103.897 2 2 2h2c1.103 0 2-.897 2-2v-6c0-1.103-.897-2-2-2zm-2 8v-6h2l.001 6z"/><path d="m27 49h2v10h-2z"/><path d="m27 37h2v10h-2z"/><path d="m31 37h2v10h-2z"/><path d="m39 57h12v2h-12z"/><path d="m39 53h20v2h-20z"/><path d="m19 19h18v2h-18z"/><path d="m19 15h18v2h-18z"/><path d="m23 11h10v2h-10z"/></svg>