<svg id="Layer_5" enable-background="new 0 0 64 64" height="512" viewBox="0 0 64 64" width="512" xmlns="http://www.w3.org/2000/svg"><path d="m2 10v-6c0-1.1.9-2 2-2h52c1.1 0 2 .9 2 2v4h-39l-2 2z" fill="#5cd6b3"/><path d="m19 8-2 2h-15v9 25 2h2 30.27 23.73v-14.57-12.43-11z" fill="#ffeaa7"/><path d="m11.05 30c-.03-.33-.05-.66-.05-1 0-4.97 4.03-9 9-9 1.48 0 2.87.36 4.1 1 1.9-4.13 6.06-7 10.9-7 6.63 0 12 5.37 12 12v.1c-.91.2-1.75.65-2.41 1.31l-.35.35c-1.36 1.36-2.96 2.42-4.7 3.14s-3.62 1.1-5.54 1.1v8h-23c-2.76 0-5-2.24-5-5s2.24-5 5-5z" fill="#e6e9ed"/><path d="m58 31.43c1.29.38 2.63.57 4 .57v10.68c0 8.12-4.72 15.5-12.09 18.9-.6.28-1.25.42-1.91.42s-1.31-.14-1.91-.42c-3.69-1.7-6.71-4.4-8.81-7.68-1.52-2.37-2.56-5.06-3.01-7.9-.18-1.08-.27-2.2-.27-3.32v-2.68-8c1.92 0 3.8-.38 5.54-1.1s3.34-1.78 4.7-3.14l.35-.35c.66-.66 1.5-1.11 2.41-1.31.33-.06.66-.1 1-.1 1.28 0 2.51.51 3.41 1.41l.35.35c1.75 1.75 3.9 3 6.24 3.67z" fill="#aab2bd"/><path d="m54 47.68c0 3.77-2.42 7.13-6 8.32-3.58-1.19-6-4.55-6-8.32v-3.68c0-1.1.9-2 2-2h8c1.1 0 2 .9 2 2z" fill="#ff826e"/><circle cx="48" cy="48" fill="#e6e9ed" r="2"/><path d="m13 5h2v2h-2z"/><path d="m9 5h2v2h-2z"/><path d="m5 5h2v2h-2z"/><path d="m56.183 47.683 1.896.636c.232-.694.424-1.408.568-2.12l-1.96-.397c-.128.631-.298 1.264-.504 1.881z"/><path d="m57 42.682c0 .416-.017.829-.049 1.239l1.994.158c.036-.462.055-.929.055-1.397v-7.917l-.786-.172c-.938-.206-1.865-.493-2.757-.852l-.747 1.855c.745.3 1.512.555 2.29.76z"/><path d="m62 31c-1.023 0-2.026-.126-3-.346v-26.654c0-1.654-1.346-3-3-3h-52c-1.654 0-3 1.346-3 3v40c0 1.654 1.346 3 3 3h29.445c1.368 6.723 5.862 12.551 12.228 15.489.725.334 1.53.511 2.327.511s1.602-.177 2.327-.511c7.699-3.553 12.673-11.328 12.673-19.807v-11.682zm-58-28h52c.551 0 1 .449 1 1v3h-38.414l-2 2h-13.586v-5c0-.551.449-1 1-1zm0 42c-.551 0-1-.449-1-1v-33h14.414l2-2h37.586v21.039c-1.678-.669-3.22-1.673-4.536-2.988l-.343-.343c-1.1-1.102-2.564-1.708-4.121-1.708-.017 0-.034.002-.051.002-.512-6.702-6.117-12.002-12.949-12.002-4.721 0-9.076 2.596-11.355 6.691-1.163-.459-2.385-.691-3.645-.691-5.514 0-10 4.486-10 10 0 .03.005.059.005.09-2.836.476-5.005 2.941-5.005 5.91 0 3.309 2.691 6 6 6h22v1.682c0 .781.056 1.552.139 2.318zm29-14v8h-22c-2.206 0-4-1.794-4-4s1.794-4 4-4 4 1.794 4 4h2c0-2.965-2.164-5.429-4.995-5.909 0-.031-.005-.06-.005-.091 0-4.411 3.589-8 8-8 1.275 0 2.502.298 3.647.886l.929.477.437-.949c1.792-3.896 5.712-6.414 9.987-6.414 5.853 0 10.638 4.598 10.968 10.369-.775.288-1.487.736-2.089 1.338l-.343.343c-2.548 2.547-5.934 3.95-9.536 3.95zm28 11.682c0 7.702-4.518 14.763-11.51 17.991-.942.435-2.038.434-2.979 0-6.993-3.228-11.511-10.289-11.511-17.991v-9.714c3.76-.238 7.262-1.816 9.95-4.504l.343-.343c1.446-1.446 3.968-1.446 5.414 0l.343.343c2.688 2.688 6.189 4.266 9.95 4.504z"/><path d="m43 36v5.184c-1.161.414-2 1.514-2 2.816v3.675c0 4.214 2.686 7.941 6.684 9.273l.316.106.316-.105c3.998-1.333 6.684-5.06 6.684-9.274v-3.675c0-1.302-.839-2.402-2-2.816v-5.184c0-2.757-2.243-5-5-5s-5 2.243-5 5zm10 11.675c0 3.24-1.996 6.117-5 7.263-3.004-1.146-5-4.023-5-7.263v-3.675c0-.551.449-1 1-1h8c.551 0 1 .449 1 1zm-2-11.675v5h-6v-5c0-1.654 1.346-3 3-3s3 1.346 3 3z"/><path d="m48 45c-1.654 0-3 1.346-3 3 0 1.302.839 2.402 2 2.816v2.184h2v-2.184c1.161-.414 2-1.514 2-2.816 0-1.654-1.346-3-3-3zm0 4c-.551 0-1-.449-1-1s.449-1 1-1 1 .449 1 1-.449 1-1 1z"/><path d="m27.205 21.499 1.731 1.002c1.249-2.16 3.573-3.501 6.064-3.501 1.23 0 2.441.324 3.5.936l1.001-1.731c-1.363-.788-2.919-1.205-4.501-1.205-3.203 0-6.19 1.724-7.795 4.499z"/><path d="m39.63 20.75c.604.534 1.107 1.16 1.496 1.86l1.749-.97c-.5-.901-1.146-1.705-1.922-2.39z"/><path d="m14.5 26.6 1.833.801c.521-1.194 1.593-2.062 2.866-2.32l-.397-1.96c-1.912.387-3.52 1.688-4.302 3.479z"/><path d="m53 19h2v2h-2z"/><path d="m53 11h2v2h-2z"/><path d="m53 15h2v2h-2z"/><path d="m5 13h10v2h-10z"/><path d="m5 17h10v2h-10z"/></svg>