<svg id="Layer_5" enable-background="new 0 0 64 64" height="512" viewBox="0 0 64 64" width="512" xmlns="http://www.w3.org/2000/svg"><path d="m53 48c2.76 0 5 2.24 5 5 0 1.38-.56 2.63-1.46 3.54-.91.9-2.16 1.46-3.54 1.46h-1v4h-4v-18h4v4z" fill="#ccd1d9"/><path d="m48 44v18h-3c-4.28 0-7.87-2.99-8.78-7h.01 5.77c1.1 0 2-.9 2-2 0-.55-.22-1.05-.59-1.41-.36-.37-.86-.59-1.41-.59h-5.77-.01c.39-1.68 1.24-3.19 2.42-4.36 1.62-1.63 3.88-2.64 6.36-2.64z" fill="#ccd1d9"/><path d="m53 44c4.97 0 9 4.03 9 9 0 2.48-1.01 4.74-2.64 6.36-1.62 1.63-3.88 2.64-6.36 2.64h-1v-4h1c1.38 0 2.63-.56 3.54-1.46.9-.91 1.46-2.16 1.46-3.54 0-2.76-2.24-5-5-5h-1v-4z" fill="#ff826e"/><path d="m43.41 51.59c.37.36.59.86.59 1.41 0 1.1-.9 2-2 2h-5.77-.01c-.14-.64-.22-1.31-.22-2s.08-1.36.22-2h.01 5.77c.55 0 1.05.22 1.41.59z" fill="#ff826e"/><path d="m2 10v-6c0-1.1.9-2 2-2h42c1.1 0 2 .9 2 2v4h-29l-2 2z" fill="#fcd770"/><path d="m32 40h-28c-1.1 0-2-.9-2-2v-28h15l2-2h29v30c0 1.1-.9 2-2 2z" fill="#e6e9ed"/><circle cx="32" cy="24" fill="#69d6f4" r="12"/><path d="m6 32h4v4h-4z" fill="#5cd6b3"/><path d="m14 32h4v4h-4z" fill="#fcd770"/><path d="m6 14h10v14h-10z" fill="#ff826e"/><path d="m53 43h-8c-5.177 0-9.446 3.954-9.949 9h-29.051c-1.654 0-3-1.346-3-3s1.346-3 3-3h22c2.757 0 5-2.243 5-5h13c1.654 0 3-1.346 3-3v-34c0-1.654-1.346-3-3-3h-42c-1.654 0-3 1.346-3 3v34c0 1.654 1.346 3 3 3h27c0 1.654-1.346 3-3 3h-22c-2.757 0-5 2.243-5 5s2.243 5 5 5h29.051c.503 5.046 4.773 9 9.949 9h8c5.514 0 10-4.486 10-10s-4.486-10-10-10zm-24.792-12h7.584c-.986 2.501-2.432 4-3.792 4s-2.806-1.499-3.792-4zm8.767-6c-.062 1.459-.261 2.8-.556 4h-8.838c-.295-1.2-.493-2.541-.556-4zm-9.95-2c.062-1.459.261-2.8.556-4h8.838c.295 1.2.493 2.541.556 4zm10.898 8h2.556c-1.069 1.292-2.43 2.329-3.977 3.026.556-.858 1.033-1.882 1.421-3.026zm3.863-2h-3.307c.271-1.242.439-2.587.495-4h3.976c-.13 1.43-.538 2.779-1.164 4zm-2.812-6c-.056-1.413-.223-2.758-.495-4h3.307c.626 1.221 1.034 2.57 1.164 4zm-1.051-6c-.388-1.144-.864-2.168-1.421-3.026 1.547.697 2.908 1.734 3.977 3.026zm-2.131 0h-7.584c.986-2.501 2.432-4 3.792-4s2.806 1.499 3.792 4zm-9.715 0h-2.556c1.069-1.292 2.43-2.329 3.977-3.026-.556.858-1.033 1.882-1.421 3.026zm-3.863 2h3.307c-.271 1.242-.439 2.587-.495 4h-3.976c.13-1.43.538-2.779 1.164-4zm2.812 6c.056 1.413.223 2.758.495 4h-3.307c-.626-1.221-1.034-2.57-1.164-4zm1.051 6c.388 1.144.864 2.168 1.421 3.026-1.547-.697-2.908-1.734-3.977-3.026zm-22.077-28h42c.551 0 1 .449 1 1v3h-28.414l-2 2h-13.586v-5c0-.551.449-1 1-1zm0 36c-.551 0-1-.449-1-1v-27h14.414l2-2h27.586v29c0 .551-.449 1-1 1h-13v-2.051c6.701-.513 12-6.118 12-12.949 0-7.168-5.832-13-13-13s-13 5.832-13 13c0 6.831 5.299 12.436 12 12.949v2.051zm49 10c2.206 0 4 1.794 4 4s-1.794 4-4 4h-2v4h-2v-16h2v4zm-16 4c0-.339.028-.672.069-1h4.931c.551 0 1 .449 1 1s-.449 1-1 1h-4.931c-.041-.328-.069-.661-.069-1zm.589 3h4.411c1.654 0 3-1.346 3-3s-1.346-3-3-3h-4.411c1.19-2.928 4.061-5 7.411-5h2v16h-2c-3.35 0-6.221-2.072-7.411-5zm15.411 5v-2c3.309 0 6-2.691 6-6s-2.691-6-6-6v-2c4.411 0 8 3.589 8 8s-3.589 8-8 8z"/><path d="m9 5h2v2h-2z"/><path d="m5 5h2v2h-2z"/><path d="m13 5h2v2h-2z"/><path d="m17 13h-12v16h12zm-2 14h-8v-12h8z"/><path d="m5 37h6v-6h-6zm2-4h2v2h-2z"/><path d="m13 37h6v-6h-6zm2-4h2v2h-2z"/></svg>