<svg id="Layer_5" enable-background="new 0 0 64 64" height="512" viewBox="0 0 64 64" width="512" xmlns="http://www.w3.org/2000/svg"><path d="m47 58v4h-30v-4h10 10z" fill="#969faa"/><g fill="#aab2bd"><path d="m18.45 55.11c.34-.68 1.03-1.11 1.79-1.11h6.76v4h-10z"/><path d="m37 54v4h-10v-4-4h10z"/><path d="m45.55 55.11 1.45 2.89h-10v-4h6.76c.76 0 1.45.43 1.79 1.11z"/></g><path d="m62 42v4c0 2.21-1.79 4-4 4h-21-10-21c-2.21 0-4-1.79-4-4v-4h6 15v2c0 1.1.9 2 2 2h4 6 4c1.1 0 2-.9 2-2v-2h15z" fill="#ccd1d9"/><path d="m8 34v8h-6v-26c0-2.21 1.79-4 4-4h2z" fill="#69d6f4"/><path d="m62 16v26h-6v-30h2c2.21 0 4 1.79 4 4z" fill="#69d6f4"/><path d="m23 42v2c0 1.1.9 2 2 2h14c1.1 0 2-.9 2-2v-2z" fill="#fcd770"/><path d="m25 8-2 2h-7-8v2 22 8h15 6 6 6 15v-30-4z" fill="#e6e9ed"/><path d="m8 10v-6c0-1.1.9-2 2-2h44c1.1 0 2 .9 2 2v4h-31l-2 2h-7z" fill="#fcd770"/><circle cx="39" cy="25" fill="#5cd6b3" r="13"/><path d="m39 11c-7.72 0-14 6.28-14 14s6.28 14 14 14 14-6.28 14-14-6.28-14-14-14zm0 26c-6.617 0-12-5.383-12-12s5.383-12 12-12 12 5.383 12 12-5.383 12-12 12z"/><path d="m43.781 19.375-1.562 1.25 3.5 4.375-3.5 4.375 1.562 1.25 4.5-5.625z"/><path d="m34.219 19.375-4.5 5.625 4.5 5.625 1.562-1.25-3.5-4.375 3.5-4.375z"/><path d="m31.929 24h14.142v2h-14.142z" transform="matrix(.142 -.99 .99 .142 8.729 60.066)"/><path d="m58 11h-1v-7c0-1.654-1.346-3-3-3h-44c-1.654 0-3 1.346-3 3v7h-1c-2.757 0-5 2.243-5 5v30c0 2.757 2.243 5 5 5h20v2h-5.764c-1.143 0-2.171.635-2.683 1.658l-1.553 3.106v5.236h32v-5.236l-1.553-3.106c-.511-1.023-1.54-1.658-2.683-1.658h-5.764v-2h20c2.757 0 5-2.243 5-5v-30c0-2.757-2.243-5-5-5zm0 2c1.654 0 3 1.346 3 3v25h-4v-28zm-34 30h4v2h-3c-.551 0-1-.449-1-1zm6 0h4v2h-4zm6 0h4v1c0 .551-.449 1-1 1h-3zm-27-2v-30h14.414l2-2h29.586v32zm1-38h44c.551 0 1 .449 1 1v3h-30.414l-2 2h-13.586v-5c0-.551.449-1 1-1zm-4 10h1v28h-4v-25c0-1.654 1.346-3 3-3zm14.236 42h5.764v2h-7.382l.724-1.447c.17-.341.513-.553.894-.553zm-2.236 6v-2h28v2zm25.764-6c.381 0 .724.212.894.553l.724 1.447h-7.382v-2zm-7.764 2h-8v-6h8zm22-8h-52c-1.654 0-3-1.346-3-3v-3h19v1c0 1.654 1.346 3 3 3h14c1.654 0 3-1.346 3-3v-1h19v3c0 1.654-1.346 3-3 3z"/><path d="m19 5h2v2h-2z"/><path d="m15 5h2v2h-2z"/><path d="m11 5h2v2h-2z"/><path d="m15 31h2v-18h-2v2h-4v2h4v2h-4v2h4v2h-4v2h4v2h-4v2h4z"/><path d="m19 15h4v2h-4z"/><path d="m19 19h4v2h-4z"/><path d="m19 23h4v2h-4z"/><path d="m19 27h4v2h-4z"/><path d="m11 33h2v2h-2z"/><path d="m15 33h8v2h-8z"/><path d="m11 37h12v2h-12z"/></svg>