<svg id="Layer_5" enable-background="new 0 0 64 64" height="512" viewBox="0 0 64 64" width="512" xmlns="http://www.w3.org/2000/svg"><path d="m19 8-2 2h-15v20 10c0 1.1.9 2 2 2h56c1.1 0 2-.9 2-2v-32z" fill="#e6e9ed"/><path d="m58 47c0 8.28-6.72 15-15 15s-15-6.72-15-15c0-1.75.3-3.43.86-5 .83-2.36 2.24-4.45 4.06-6.1 2.66-2.42 6.2-3.9 10.08-3.9 6.53 0 12.09 4.18 14.14 10 .56 1.57.86 3.25.86 5z" fill="#fcd770"/><path d="m47.7 18-.4 4h-4l.4-4z" fill="#ff826e"/><path d="m56 12h-8-12c-1.1 0-2 .9-2 2v12c0 1.1.9 2 2 2h11 9c1.1 0 2-.9 2-2v-12c0-1.1-.9-2-2-2z" fill="#ff826e"/><path d="m2 10v-6c0-1.1.9-2 2-2h56c1.1 0 2 .9 2 2v4h-43l-2 2z" fill="#5cd6b3"/><path d="m5 5h2v2h-2z"/><path d="m9 5h2v2h-2z"/><path d="m13 5h2v2h-2z"/><path d="m60 1h-56c-1.654 0-3 1.346-3 3v36c0 1.654 1.346 3 3 3h23.527c-.332 1.281-.527 2.617-.527 4 0 8.822 7.178 16 16 16s16-7.178 16-16c0-1.383-.195-2.719-.527-4h1.527c1.654 0 3-1.346 3-3v-36c0-1.654-1.346-3-3-3zm-56 2h56c.552 0 1 .449 1 1v3h-42.414l-2 2h-13.586v-5c0-.551.448-1 1-1zm39 58c-7.72 0-14-6.28-14-14s6.28-14 14-14 14 6.28 14 14-6.28 14-14 14zm17-20h-2.178c-2.379-5.856-8.122-10-14.822-10s-12.443 4.144-14.822 10h-24.178c-.552 0-1-.449-1-1v-29h14.414l2-2h41.586v31c0 .551-.448 1-1 1z"/><path d="m38 41c1.654 0 3 1.346 3 3h2c0-2.757-2.243-5-5-5s-5 2.243-5 5v6c0 2.757 2.243 5 5 5s5-2.243 5-5h-2c0 1.654-1.346 3-3 3s-3-1.346-3-3v-6c0-1.654 1.346-3 3-3z"/><path d="m49.5 38.861h1.999v16.279h-1.999z" transform="matrix(.983 -.184 .184 .983 -7.797 10.112)"/><path d="m7 20c0 1.654 1.346 3 3 3h1v-2h-1c-.552 0-1-.449-1-1 0-.771-.301-1.468-.78-2 .479-.532.78-1.229.78-2 0-.551.448-1 1-1h1v-2h-1c-1.654 0-3 1.346-3 3 0 .551-.448 1-1 1h-1v2h1c.552 0 1 .449 1 1z"/><path d="m29 32c0-1.654-1.346-3-3-3h-1v2h1c.552 0 1 .449 1 1 0 .771.301 1.468.78 2-.48.532-.78 1.229-.78 2 0 .551-.448 1-1 1h-1v2h1c1.654 0 3-1.346 3-3 0-.551.448-1 1-1h1v-2h-1c-.552 0-1-.449-1-1z"/><path d="m13 13h2v2h-2z"/><path d="m17 13h14v2h-14z"/><path d="m13 17h18v2h-18z"/><path d="m13 21h18v2h-18z"/><path d="m21 37h2v2h-2z"/><path d="m17 37h2v2h-2z"/><path d="m5 37h10v2h-10z"/><path d="m5 33h18v2h-18z"/><path d="m5 29h18v2h-18z"/><path d="m5 25h26v2h-26z"/><path d="m56 11h-20c-1.654 0-3 1.346-3 3v12c0 1.654 1.346 3 3 3h20c1.654 0 3-1.346 3-3v-12c0-1.654-1.346-3-3-3zm1 15c0 .551-.448 1-1 1h-20c-.552 0-1-.449-1-1v-12c0-.551.448-1 1-1h20c.552 0 1 .449 1 1z"/><path d="m48.995 15.1-1.99-.199-.21 2.1h-1.99l.19-1.9-1.99-.199-.21 2.1h-2.795v2h2.595l-.2 2h-2.395v2h2.195l-.19 1.9 1.99.199.21-2.1h1.99l-.19 1.9 1.99.199.21-2.1h2.795v-2h-2.595l.2-2h2.395v-2h-2.195zm-2.6 5.9h-1.99l.2-2h1.99z"/><path d="m45 42h2v2h-2z"/><path d="m45 50h2v2h-2z"/></svg>