<svg id="Layer_5" enable-background="new 0 0 64 64" height="512" viewBox="0 0 64 64" width="512" xmlns="http://www.w3.org/2000/svg"><circle cx="20" cy="20" fill="#69d6f4" r="18"/><path d="m36 54h-6l-1-11-3-1v-5.05-4.95c0-1.02.09-2.03.26-3 .22-1.39.62-2.73 1.16-4 .11-.28.24-.55.37-.82.88-1.83 2.06-3.49 3.48-4.91 1.72-1.71 3.78-3.09 6.08-3.99 2.06-.83 4.3-1.28 6.65-1.28 9.94 0 18 8.06 18 18v3.54c0 4.78-1.9 9.36-5.27 12.73l-2.73 2.73v12h-18z" fill="#f0d0b4"/><circle cx="20" cy="54" fill="#ff826e" r="2"/><circle cx="12" cy="51" fill="#ff826e" r="2"/><path d="m22.12 22.12c-.54.54-1.29.88-2.12.88-1.66 0-3-1.34-3-3s1.34-3 3-3 3 1.34 3 3c0 .83-.34 1.58-.88 2.12z" fill="#fcd770"/><path d="m41.88 29.88c.54-.54 1.29-.88 2.12-.88 1.66 0 3 1.34 3 3s-1.34 3-3 3-3-1.34-3-3c0-.83.34-1.58.88-2.12z" fill="#fcd770"/><circle cx="57" cy="7" fill="#ff826e" r="2"/><path d="m59 32c0-.719-.051-1.44-.153-2.143l-1.979.285c.088.609.132 1.234.132 1.858z"/><path d="m44 17v2c5.704 0 10.827 3.818 12.46 9.286l1.916-.572c-1.884-6.308-7.795-10.714-14.376-10.714z"/><path d="m44 13c-2.101 0-4.117.357-6.008.989-.473-1.418-1.105-2.752-1.874-3.989h8.295l2-2h7.77c.414 1.161 1.514 2 2.816 2 1.654 0 3-1.346 3-3s-1.346-3-3-3c-1.302 0-2.402.839-2.816 2h-8.598l-2 2h-8.883c-3.528-4.319-8.878-7-14.702-7-10.477 0-19 8.523-19 19 0 6.376 3.167 12.015 8 15.463v4.951l2 2v5.77c-1.161.414-2 1.514-2 2.816 0 1.654 1.346 3 3 3s3-1.346 3-3c0-1.302-.839-2.402-2-2.816v-6.598l-2-2v-2.859c2.403 1.298 5.12 2.071 8 2.222v12.235c-1.161.414-2 1.514-2 2.816 0 1.654 1.346 3 3 3s3-1.346 3-3c0-1.302-.839-2.402-2-2.816v-12.227c1.344-.073 2.681-.285 4-.649v4.413l3.063 1.021 1.024 11.258h5.913v8h2v-8h3c4.962 0 9-4.038 9-9v-1h-2v1c0 3.86-3.14 7-7 7h-9.087l-.977-10.742-2.936-.979v-9.279c0-2.114.406-4.131 1.114-6h8.472l3.981 3.981c-.352.595-.567 1.279-.567 2.019 0 2.206 1.794 4 4 4s4-1.794 4-4-1.794-4-4-4c-.74 0-1.424.215-2.019.567l-4.567-4.567h-8.406c2.867-5.35 8.509-9 14.992-9 9.374 0 17 7.626 17 17v3.544c0 4.541-1.768 8.81-4.979 12.021l-3.021 3.021v12.414h2v-11.586l2.435-2.435c3.589-3.588 5.565-8.36 5.565-13.435v-3.544c0-10.477-8.523-19-19-19zm13-7c.551 0 1 .449 1 1s-.449 1-1 1-1-.449-1-1 .449-1 1-1zm-45 46c-.551 0-1-.449-1-1s.449-1 1-1 1 .449 1 1-.449 1-1 1zm34-20c0 1.103-.897 2-2 2s-2-.897-2-2 .897-2 2-2 2 .897 2 2zm-12.289-22h-6.031c-.753-2.609-1.794-4.78-3.04-6.337 3.651 1.044 6.845 3.287 9.071 6.337zm-6.921 14h-1.376l-1.981-1.981c.186-.316.33-.656.425-1.019h3.116c-.025 1.009-.078 2.011-.179 2.99-.001.003-.003.007-.005.01zm-6.79-2c-1.103 0-2-.897-2-2s.897-2 2-2 2 .897 2 2-.897 2-2 2zm6.978-3h-3.12c-.447-1.72-2-3-3.858-3s-3.411 1.28-3.858 3h-3.12c.062-2.588.357-4.942.824-7h12.308c.467 2.058.762 4.412.824 7zm-23.927 2h7.973c.059 2.504.335 4.862.794 7h-6.81c-1.129-2.108-1.81-4.483-1.957-7zm0-2c.148-2.517.828-4.892 1.958-7h6.809c-.459 2.138-.735 4.496-.794 7zm11.324-9c1.361-4.388 3.537-7 5.625-7s4.264 2.612 5.625 7zm.987-6.341c-1.248 1.557-2.29 3.73-3.043 6.341h-6.036c2.211-3.024 5.386-5.291 9.079-6.341zm-9.079 26.341h6.037c.753 2.611 1.795 4.783 3.043 6.341-3.694-1.05-6.869-3.317-9.08-6.341zm13.717 25c-.551 0-1-.449-1-1s.449-1 1-1 1 .449 1 1-.449 1-1 1zm0-18c-2.088 0-4.264-2.612-5.625-7h10.733c-.07.658-.108 1.324-.108 2v4.216c-1.643.511-3.32.784-5 .784zm5.432-9h-11.586c-.467-2.058-.762-4.412-.824-7h3.12c.447 1.72 2 3 3.858 3 .74 0 1.424-.215 2.019-.567l2.567 2.567h1.4c-.218.653-.407 1.318-.554 2zm3.558-7.605c.001-.132.01-.263.01-.395 0-2.878-.297-5.578-.817-8h6.787c.462.864.85 1.776 1.16 2.728-2.818 1.289-5.262 3.243-7.14 5.667z"/></svg>