<svg id="Layer_5" enable-background="new 0 0 64 64" height="512" viewBox="0 0 64 64" width="512" xmlns="http://www.w3.org/2000/svg"><path d="m28 19c0-1.28-.54-2.37-1.17-3.21.43-1.35 1.03-2.62 1.77-3.79l-1.16-2.31 4.25-4.25 2.31 1.16c1.57-.99 3.32-1.73 5.18-2.15l.82-2.45h6l.82 2.45c1.86.42 3.61 1.16 5.18 2.15l2.31-1.16 4.25 4.25-1.16 2.31c.99 1.57 1.73 3.32 2.15 5.18l2.45.82v6l-2.45.82c-.42 1.86-1.16 3.61-2.15 5.18l1.16 2.31-4.25 4.25-2.31-1.16c-1.57.99-3.32 1.73-5.18 2.15l-.82 2.45h-6l-.82-2.45c-1.86-.42-3.61-1.16-5.18-2.15l-2.47 1.21c.3-.46.47-1.02.47-1.61v-7.07c2.3 3.65 6.37 6.07 11 6.07 7.18 0 13-5.82 13-13s-5.82-13-13-13-13 5.82-13 13c0 .19 0 .38.01.57-.59-.75-1.29-1.4-2.08-1.94.05-.2.07-.41.07-.63z" fill="#fcd770"/><path d="m43 8c7.18 0 13 5.82 13 13s-5.82 13-13 13c-4.63 0-8.7-2.42-11-6.07v-.6c0-2.17-.74-4.17-1.99-5.75v-.01c-.01-.19-.01-.38-.01-.57 0-7.18 5.82-13 13-13z" fill="#e6e9ed"/><path d="m32.97 49.99-8.08-3.23-.89 6.24-2.56-1.92-1.44-1.08-4 3-.89-6.24-8.08 3.23c-3.04 1.21-5.03 4.16-5.03 7.43v4.58h6 12 12 6v-4.58c0-3.27-1.99-6.22-5.03-7.43z" fill="#5cd6b3"/><path d="m23 46 1.89.76-.89 6.24-2.56-1.92-1.44-1.08z" fill="#e6e9ed"/><path d="m17 46 3 4-4 3-.89-6.24z" fill="#e6e9ed"/><path d="m23 43.37v2.63l-3 4-3-4v-2.63l.01-.01c.9.68 1.9 1.23 2.99 1.64 1.09-.41 2.09-.96 2.99-1.64z" fill="#f0d0b4"/><path d="m32 27.93v7.07c0-1.66-1.34-3-3-3h-1v-1c0-1.1-.9-2-2-2h-2.53c-2.94 0-5.84-.68-8.47-2l-2.11 1.41c-.56.37-.89.99-.89 1.66v1.93h-1c-.83 0-1.58.34-2.12.88s-.88 1.29-.88 2.12v-7.67c0-5.15 4.18-9.33 9.33-9.33 1.47 0 2.9-.34 4.18-.98s2.41-1.58 3.29-2.75l.2-.27s.99.66 1.83 1.79c.63.84 1.17 1.93 1.17 3.21 0 .22-.02.43-.07.63.79.54 1.49 1.19 2.08 1.94v.01c1.25 1.58 1.99 3.58 1.99 5.75z" fill="#656d78"/><g fill="#f0d0b4"><path d="m29 32c1.66 0 3 1.34 3 3 0 .59-.17 1.15-.47 1.61-.12.19-.26.36-.41.51-.54.54-1.29.88-2.12.88h-1.88c.32-.77.55-1.58.69-2.42.07-.09.11-.18.14-.29.03-.09.05-.19.05-.29v-2-1z"/><path d="m28 33c0-.55-.45-1-1-1h-4c-.55 0-1 .45-1 1h-4c0-.55-.45-1-1-1h-4c-.55 0-1 .45-1 1v-1-1.93c0-.67.33-1.29.89-1.66l2.11-1.41c2.63 1.32 5.53 2 8.47 2h2.53c1.1 0 2 .9 2 2v1z"/><path d="m27 36c.33 0 .63-.17.81-.42-.14.84-.37 1.65-.69 2.42-.84 2.14-2.27 4-4.13 5.36-.9.68-1.9 1.23-2.99 1.64-1.09-.41-2.09-.96-2.99-1.64-1.86-1.36-3.29-3.22-4.14-5.36-.31-.77-.54-1.58-.68-2.42.18.25.48.42.81.42h4c.55 0 1-.45 1-1v-2h4v2c0 .55.45 1 1 1z"/><path d="m12.05 35.29c.03.11.07.2.14.29.14.84.37 1.65.68 2.42h-1.87c-1.66 0-3-1.34-3-3 0-.83.34-1.58.88-2.12s1.29-.88 2.12-.88h1v1 .46 1.54c0 .1.02.2.05.29z"/></g><path d="m28 33v2c0 .1-.02.2-.05.29s-.08.18-.13.26c0 .01 0 .02-.01.03-.18.25-.48.42-.81.42h-4c-.55 0-1-.45-1-1v-2c0-.55.45-1 1-1h4c.55 0 1 .45 1 1z" fill="#69d6f4"/><path d="m18 33v2c0 .55-.45 1-1 1h-4c-.33 0-.63-.17-.81-.42-.01-.01-.01-.02-.01-.03-.05-.08-.1-.17-.13-.26s-.05-.19-.05-.29v-1.54-.46c0-.55.45-1 1-1h4c.55 0 1 .45 1 1z" fill="#69d6f4"/><path d="m19 53h2v2h-2z"/><path d="m19 57h2v2h-2z"/><path d="m47.781 26.625 4.499-5.625-4.499-5.625-1.562 1.25 3.501 4.375-3.501 4.375z"/><path d="m39.781 25.375-3.501-4.375 3.501-4.375-1.562-1.25-4.499 5.625 4.499 5.625z"/><path d="m35.929 20h14.142v2.001h-14.142z" transform="matrix(.142 -.99 .99 .142 16.125 60.594)"/><path d="m60.394 16.411c-.411-1.561-1.032-3.057-1.852-4.46l1.231-2.462-5.263-5.261-2.461 1.23c-1.403-.819-2.899-1.44-4.46-1.851l-.868-2.607h-7.441l-.87 2.606c-1.561.411-3.057 1.032-4.46 1.851l-2.461-1.23-5.263 5.261 1.231 2.462c-.371.635-.69 1.294-.979 1.967-.494-.456-.878-.719-.924-.749l-.787-.524-.767 1.023c-1.565 2.087-4.058 3.333-6.667 3.333-5.697 0-10.333 4.636-10.333 10.333v7.667c0 2.206 1.794 4 4 4h1.227c.864 1.882 2.166 3.524 3.773 4.82v1.502l-9.342 3.738c-3.437 1.374-5.658 4.654-5.658 8.357v5.583h38v-5.583c0-3.702-2.221-6.982-5.658-8.357l-9.342-3.737v-1.503c1.607-1.297 2.908-2.939 3.773-4.82h1.227c1.297 0 2.439-.63 3.17-1.589l1.776-.871c1.404.82 2.901 1.442 4.464 1.854l.869 2.606h7.441l.869-2.606c1.561-.411 3.057-1.032 4.46-1.851l2.461 1.23 5.263-5.262-1.231-2.461c.819-1.403 1.44-2.899 1.852-4.46l2.606-.869v-7.441zm-43.061 2.589c2.999 0 5.873-1.327 7.822-3.582.757.707 1.845 1.999 1.845 3.582 0 2.212-3.616 3-7 3v2c4.207 0 7.088-.989 8.321-2.775 1.691 1.567 2.679 3.77 2.679 6.108v4.223c-.591-.344-1.268-.556-2-.556 0-1.654-1.346-3-3-3h-2.528c-2.771 0-5.546-.655-8.024-1.895l-.52-.259-2.592 1.728c-.837.558-1.336 1.491-1.336 2.496v.93c-.732 0-1.409.212-2 .556v-4.223c0-4.595 3.738-8.333 8.333-8.333zm13.667 2c0-6.617 5.383-12 12-12s12 5.383 12 12-5.383 12-12 12c-4.054 0-7.767-2.015-10-5.389v-.278c0-2.219-.722-4.336-1.994-6.082-.002-.083-.006-.167-.006-.251zm-4.015 13.99-.006.01h-3.979v-2h4v1.99zm-5.707-2.99h-2.556c-.347-.595-.985-1-1.722-1h-4v-.93c0-.335.166-.646.445-.832l1.635-1.09c2.618 1.213 5.507 1.852 8.392 1.852h2.528c.552 0 1 .449 1 1h-4c-.737 0-1.375.405-1.722 1zm-8.253 3-.025-.038v-1.506-.456h4v2zm-2.025 2c-1.103 0-2-.897-2-2s.897-2 2-2v.456 1.544c0 .337.091.649.239.928.069.365.175.717.273 1.072zm5.751 14.187-.541-3.793.45-.18 1.94 2.586zm20.249 6.23v3.583h-4v-6h-2v6h-22v-6h-2v6h-4v-3.583c0-2.879 1.728-5.431 4.4-6.5l6.898-2.759.951 6.656 4.751-3.564 4.751 3.563.951-6.656 6.898 2.759c2.672 1.07 4.4 3.621 4.4 6.501zm-13.66-10.204.45.18-.541 3.793-1.849-1.386zm-1.34-1.546-2 2.666-2-2.666v-.487c.529.287 1.077.543 1.648.757l.352.131.352-.131c.571-.214 1.12-.471 1.648-.757zm-2-1.742c-3.052-1.263-5.385-3.821-6.413-6.925h3.413c1.103 0 2-.897 2-2v-1h2v1c0 1.103.897 2 2 2h3.413c-1.028 3.104-3.361 5.662-6.413 6.925zm9-6.925h-.512c.098-.355.205-.707.273-1.072.148-.279.239-.591.239-.928v-2c1.103 0 2 .897 2 2s-.897 2-2 2zm32-13.721-2.294.765-.126.547c-.396 1.725-1.078 3.367-2.026 4.881l-.298.476 1.084 2.168-3.224 3.223-2.167-1.083-.477.298c-1.514.949-3.156 1.63-4.881 2.026l-.548.125-.764 2.295h-4.559l-.765-2.294-.548-.125c-1.725-.396-3.367-1.078-4.881-2.026l-.472-.295-1.054.516v-3.981c2.605 2.669 6.173 4.205 10 4.205 7.72 0 14-6.28 14-14s-6.28-14-14-14c-7.137 0-13.033 5.372-13.884 12.283-.042-.034-.086-.067-.128-.1.003-.062.012-.12.012-.183 0-1.312-.466-2.448-1.055-3.359.386-1.083.886-2.13 1.501-3.113l.298-.476-1.084-2.168 3.224-3.223 2.167 1.083.477-.298c1.514-.949 3.156-1.63 4.881-2.026l.548-.125.764-2.295h4.559l.765 2.294.548.125c1.725.396 3.367 1.078 4.881 2.026l.477.298 2.167-1.083 3.224 3.223-1.084 2.168.298.476c.948 1.514 1.63 3.156 2.026 4.881l.126.547 2.292.766z"/><path d="m41 43h18v2h-18z"/><path d="m41 47h18v2h-18z"/><path d="m41 51h10v2h-10z"/><path d="m57 51h2v2h-2z"/><path d="m53 51h2v2h-2z"/></svg>