<svg id="Layer_5" enable-background="new 0 0 64 64" height="512" viewBox="0 0 64 64" width="512" xmlns="http://www.w3.org/2000/svg"><path d="m46 46v6h-5c-1.66 0-3-1.34-3-3 0-.83.34-1.58.88-2.12s1.29-.88 2.12-.88z" fill="#f0d0b4"/><path d="m36.16 27.61h.01c.08.45.21.88.37 1.3-.69-.57-1.58-.91-2.54-.91h-.24c-1.12-1.63-1.76-3.6-1.76-5.67v-8.33c0-6.63 5.37-12 12-12 3.32 0 6.32 1.34 8.49 3.51s3.51 5.17 3.51 8.49v8.33c0 2.21-.73 4.31-2 6-1.05 1.4-2.47 2.52-4.15 3.23l-.17.07c1.07-1.08 1.84-2.47 2.16-4.02.1-.52.16-1.06.16-1.61v-10c0-1.16-.25-2.26-.69-3.25-1.24-2.8-4.05-4.75-7.31-4.75-4.21 0-7.67 3.25-7.98 7.39-.01.2-.02.4-.02.61v10c0 .55.05 1.09.16 1.61z" fill="#ffc729"/><path d="m56.53 29.18-2.53-.85c-1.05 1.4-2.47 2.52-4.15 3.23l-.17.07c1.07-1.08 1.84-2.47 2.16-4.02l-4.84-1.61v-1c0 1.66-1.34 3-3 3-.83 0-1.58-.34-2.12-.88s-.88-1.29-.88-2.12v1l-4.83 1.61c.08.45.21.88.37 1.3l.01.01c.76.63 1.28 1.53 1.41 2.56.03.17.04.34.04.52v17c0-.83.34-1.58.88-2.12s1.29-.88 2.12-.88h5v6h4 6c3.31 0 6-2.69 6-6v-9.23c0-3.45-2.2-6.5-5.47-7.59z" fill="#fcd770"/><path d="m36 16c0 3.36 2.07 6.23 5 7.41v.01 1.58 1l-4.83 1.61h-.01c-.11-.52-.16-1.06-.16-1.61z" fill="#656d78"/><path d="m52 16v10c0 .55-.06 1.09-.16 1.61l-4.84-1.61v-1-1.58-.01c2.93-1.18 5-4.05 5-7.41z" fill="#656d78"/><path d="m45.35 33.44c.4.89.65 1.98.65 2.56 0 1.1-.9 2-2 2s-2-.9-2-2c0-.58.25-1.67.65-2.56.36-.8.83-1.44 1.35-1.44s.99.64 1.35 1.44z" fill="#ff826e"/><path d="m44 24c1.06 0 2.07-.21 3-.58v1.58c0 1.66-1.34 3-3 3-.83 0-1.58-.34-2.12-.88s-.88-1.29-.88-2.12v-1.58c.93.37 1.94.58 3 .58z" fill="#f0d0b4"/><path d="m52 16c0 3.36-2.07 6.23-5 7.41v.01c-.93.37-1.94.58-3 .58s-2.07-.21-3-.58v-.01c-2.93-1.18-5-4.05-5-7.41 0-.21.01-.41.02-.61l7.98-2.39v3l7.31-3.25c.44.99.69 2.09.69 3.25z" fill="#f0d0b4"/><path d="m51.31 12.75-7.31 3.25v-3l-7.98 2.39c.31-4.14 3.77-7.39 7.98-7.39 3.26 0 6.07 1.95 7.31 4.75z" fill="#656d78"/><path d="m33.76 28h.24c.96 0 1.85.34 2.54.91l.01.01c.76.63 1.28 1.53 1.41 2.56.03.17.04.34.04.52v17 1c0 2.21-1.79 4-4 4h-4c2.21 0 4-1.79 4-4v-18c0-2.21-2.79-4-5-4h1z" fill="#aab2bd"/><path d="m34 32v18c0 2.21-1.79 4-4 4h-5l-1-8h-8l-1.07 8h-8.93c-2.21 0-4-1.79-4-4v-18c0-2.21 1.79-4 4-4h23c2.21 0 5 1.79 5 4z" fill="#ccd1d9"/><path d="m34 62h-8l-.5-3.99.06-.01h4.44c1.1 0 2.1.45 2.83 1.17.72.73 1.17 1.73 1.17 2.83z" fill="#969faa"/><path d="m25.5 58.01.5 3.99h-1-11v-1l.93-7 1.07-8h8l1 8z" fill="#969faa"/><path d="m5 35h2v2h-2z"/><path d="m5 31h2v2h-2z"/><path d="m5 39h2v2h-2z"/><path d="m56.846 28.228-1.294-.431c.93-1.627 1.448-3.499 1.448-5.464v-8.333c0-7.168-5.832-13-13-13s-13 5.832-13 13v8.333c0 1.629.36 3.213 1.042 4.667h-2.042-1-23c-2.757 0-5 2.243-5 5v18c0 2.757 2.243 5 5 5h7.791l-.782 5.868-.009 2.132h12 2.133 7.867v-1c0-2.757-2.243-5-5-5h-3.617l-.25-2h7.867c2 0 3.717-1.188 4.516-2.889.685.547 1.541.889 2.484.889h15c3.86 0 7-3.141 7-7v-9.234c0-3.88-2.473-7.311-6.154-8.538zm-23.846-14.228c0-6.065 4.935-11 11-11s11 4.935 11 11v8.333c0 2.286-.856 4.419-2.323 6.039.207-.764.323-1.559.323-2.372v-10c0-4.962-4.038-9-9-9s-9 4.038-9 9v10c0 .379.032.753.078 1.124-.235-.052-.479-.071-.725-.088-.873-1.418-1.353-3.028-1.353-4.703zm5.825 16.758c-.239-.927-.73-1.75-1.407-2.387-.013-.037-.025-.074-.038-.111l3.268-1.089c.537.826 1.372 1.433 2.351 1.687v2.477c-.296.207-.556.498-.784.837zm12.175-4.758c0 .092-.01.183-.013.275l-2.987-.996v-1.229c1.165-.581 2.189-1.402 3-2.406zm-7 1c-1.103 0-2-.897-2-2v-.232c.644.147 1.312.232 2 .232s1.356-.085 2-.232v.232c0 1.103-.897 2-2 2zm0-4c-3.812 0-6.916-3.064-6.993-6.858l5.993-1.798v3.194l7.732-3.436c.17.605.268 1.24.268 1.898 0 3.86-3.14 7-7 7zm1-8.539v-2.806l-7.696 2.309c.874-2.869 3.544-4.964 6.696-4.964 2.491 0 4.676 1.311 5.917 3.276zm-5 9.589v1.229l-2.987.996c-.004-.092-.013-.183-.013-.275v-4.356c.811 1.004 1.835 1.825 3 2.406zm4 12.95c-.551 0-1-.448-1-1 0-.826.571-2.436 1-2.915.429.479 1 2.089 1 2.915 0 .552-.449 1-1 1zm1-5.665v-2.477c.979-.254 1.813-.861 2.351-1.687l3.27 1.09c-.319.936-.835 1.798-1.53 2.535l-3.305 1.377c-.229-.339-.49-.631-.786-.838zm-29.991 29.665 1.867-14h6.242l1.75 14zm14.991-2c1.304 0 2.416.836 2.829 2h-5.946l-.25-2zm-4.117-6-1-8h-9.758l-1.067 8h-8.058c-1.654 0-3-1.346-3-3v-18c0-1.654 1.346-3 3-3h23c1.747 0 4 1.455 4 3v18c0 1.654-1.346 3-3 3zm11.117-3c0 1.654-1.346 3-3 3h-.026c.635-.838 1.026-1.87 1.026-3v-18c0-1.138-.531-2.171-1.342-3h.342c1.654 0 3 1.346 3 3zm2-1c0-1.103.897-2 2-2h4v4h-4c-1.103 0-2-.897-2-2zm22-3c0 2.757-2.243 5-5 5h-5v-2h-2v2h-2v-4h7c1.654 0 3-1.346 3-3v-7h-2v7c0 .552-.449 1-1 1h-13c-.732 0-1.409.212-2 .556v-12.558l2.38.992c-.255.814-.38 1.588-.38 2.01 0 1.302.839 2.402 2 2.816v4.184h2v-4.184c1.161-.414 2-1.514 2-2.816 0-.422-.125-1.195-.379-2.009l3.61-1.504c1.623-.677 3.015-1.711 4.111-2.985l1.871.624c2.864.954 4.787 3.622 4.787 6.64z"/></svg>