<svg id="Layer_5" enable-background="new 0 0 64 64" height="512" viewBox="0 0 64 64" width="512" xmlns="http://www.w3.org/2000/svg"><g fill="#aab2bd"><path d="m6 42v8c-2.21 0-4-1.79-4-4v-40h4v12 12z"/><path d="m36 6h-4-26-4c0-2.21 1.79-4 4-4h26c2.21 0 4 1.79 4 4z"/><path d="m36 6v16c-1.39 0-2.73.2-4 .58v-4.58-12z"/></g><path d="m32 6h-26v12 12 12 8h26c.48 0 .95-.08 1.38-.24z" fill="#ffeaa7"/><circle cx="12" cy="12" fill="#ff826e" r="2"/><circle cx="12" cy="36" fill="#ff826e" r="2"/><path d="m62 57.19c0 1.33-.54 2.53-1.41 3.4s-2.07 1.41-3.4 1.41c-1.39 0-2.71-.6-3.63-1.66l-10.6-12.2c2.16-1.23 3.95-3.02 5.18-5.18l12.2 10.6c1.06.92 1.66 2.24 1.66 3.63z" fill="#969faa"/><path d="m33.38 49.76c-4.44-.85-8.14-3.79-10.03-7.76-.87-1.82-1.35-3.86-1.35-6s.48-4.18 1.35-6c1.69-3.55 4.82-6.28 8.65-7.42 1.27-.38 2.61-.58 4-.58 3.36 0 6.44 1.18 8.85 3.15l-2.86 2.86c-1.67-1.26-3.74-2.01-5.99-2.01-5.52 0-10 4.48-10 10s4.48 10 10 10 10-4.48 10-10c0-1.73-.44-3.36-1.22-4.78l2.91-2.91c1.46 2.21 2.31 4.85 2.31 7.69 0 2.53-.68 4.91-1.86 6.96-1.23 2.16-3.02 3.95-5.18 5.18-2.05 1.18-4.43 1.86-6.96 1.86-.9 0-1.77-.08-2.62-.24z" fill="#e6e9ed"/><path d="m44.78 31.22c.78 1.42 1.22 3.05 1.22 4.78 0 5.52-4.48 10-10 10s-10-4.48-10-10 4.48-10 10-10c2.25 0 4.32.75 5.99 2.01l-6.99 6.99-2-2-3 3 5 5z" fill="#69d6f4"/><path d="m52 24-4.31 4.31-2.91 2.91-9.78 9.78-5-5 3-3 2 2 6.99-6.99 2.86-2.86 4.15-4.15z" fill="#ff826e"/><path d="m61 52.808-11.611-10.083c1.022-2.025 1.611-4.305 1.611-6.725 0-2.663-.71-5.25-2.046-7.54l4.46-4.46-4.414-4.414-4.249 4.249c-2.269-1.633-4.962-2.603-7.751-2.791v-15.044c0-2.757-2.243-5-5-5h-26c-2.757 0-5 2.243-5 5v40c0 2.757 2.243 5 5 5h26c.493 0 .972-.094 1.44-.235.834.144 1.686.235 2.56.235 2.42 0 4.7-.589 6.725-1.611l10.083 11.611c1.104 1.271 2.701 2 4.385 2 3.202 0 5.807-2.605 5.807-5.808 0-1.683-.729-3.281-2-4.384zm-10.414-28.808-15.586 15.586-3.586-3.586 1.586-1.586 2 2 14-14zm-5.586 12c0 4.963-4.037 9-9 9s-9-4.037-9-9c0-4.962 4.037-9 9-9 1.563 0 3.067.407 4.413 1.173l-5.413 5.413-2-2-4.414 4.414 6.414 6.414 9.458-9.458c.349.973.542 2.003.542 3.044zm-14-29v10h-24v-10zm-24 24h14.875c-.556 1.567-.875 3.245-.875 5s.319 3.433.875 5h-14.875zm15.744-2h-15.744v-10h24v2.875c-3.56 1.264-6.507 3.825-8.256 7.125zm10.256-22h2v14.051c-.678.045-1.349.119-2 .252zm-27-4h26c1.302 0 2.402.839 2.816 2h-31.632c.414-1.161 1.514-2 2.816-2zm-3 43v-39h2v41.816c-1.161-.414-2-1.514-2-2.816zm4 3v-6h15.743c1.329 2.507 3.35 4.587 5.805 6zm16-13c0-7.168 5.832-13 13-13 2.614 0 5.176.797 7.323 2.262l-1.449 1.449c-1.762-1.121-3.775-1.711-5.874-1.711-6.065 0-11 4.935-11 11s4.935 11 11 11 11-4.935 11-11c0-1.581-.362-3.14-1.016-4.57l1.5-1.5c.99 1.867 1.516 3.941 1.516 6.07 0 7.168-5.832 13-13 13s-13-5.832-13-13zm34.192 25c-1.104 0-2.151-.478-2.875-1.311l-9.837-11.328c1.519-1.045 2.835-2.362 3.881-3.881l11.329 9.837c.832.724 1.31 1.772 1.31 2.875 0 2.1-1.708 3.808-3.808 3.808z"/><path d="m53.329 53.379h2v1.899h-2z" transform="matrix(.707 -.707 .707 .707 -22.504 54.329)"/><path d="m47.707 47.707h2v2h-2z" transform="matrix(.707 -.707 .707 .707 -20.175 48.707)"/><path d="m50.535 50.535h2v2h-2z" transform="matrix(.707 -.707 .707 .707 -21.347 51.535)"/><path d="m12 15c1.654 0 3-1.346 3-3s-1.346-3-3-3-3 1.346-3 3 1.346 3 3 3zm0-4c.552 0 1 .449 1 1s-.448 1-1 1-1-.449-1-1 .448-1 1-1z"/><path d="m12 33c-1.654 0-3 1.346-3 3s1.346 3 3 3 3-1.346 3-3-1.346-3-3-3zm0 4c-.552 0-1-.448-1-1s.448-1 1-1 1 .448 1 1-.448 1-1 1z"/><path d="m9 21h2v6h-2z"/><path d="m13 21h2v6h-2z"/><path d="m27 9h2v6h-2z"/><path d="m23 9h2v6h-2z"/><path d="m9 45h2v2h-2z"/><path d="m17 45h2v2h-2z"/><path d="m13 45h2v2h-2z"/></svg>