<svg id="Layer_5" enable-background="new 0 0 64 64" height="512" viewBox="0 0 64 64" width="512" xmlns="http://www.w3.org/2000/svg"><path d="m43 58v4h-30v-4h10 10z" fill="#969faa"/><g fill="#aab2bd"><path d="m41.55 55.11 1.45 2.89h-10v-4h6.76c.76 0 1.45.43 1.79 1.11z"/><path d="m33 54v4h-10v-4-4h10z"/><path d="m23 54v4h-10l1.45-2.89c.34-.68 1.03-1.11 1.79-1.11z"/></g><path d="m54 42v4c0 2.21-1.79 4-4 4h-17-10-17c-2.21 0-4-1.79-4-4v-4h4 6 7v2c0 1.1.9 2 2 2h4 6 4c1.1 0 2-.9 2-2v-2h13z" fill="#ccd1d9"/><path d="m16.78 22.37c-.6.14-1.18.32-1.74.54-5.29 2-9.04 7.11-9.04 13.09v6h-4v-24c0-2.21 1.79-4 4-4h7.07.01c-.06.32-.08.66-.08 1 0 3.87 3.13 7 7 7-1.11 0-2.19.13-3.22.37z" fill="#69d6f4"/><path d="m24.96 22.91c-.56-.22-1.14-.4-1.74-.54-1.03-.24-2.11-.37-3.22-.37 3.87 0 7-3.13 7-7 0-.34-.02-.68-.08-1h.01 15.07v7.05c-.94.85-1.75 1.84-2.39 2.94-1.03 1.77-1.61 3.82-1.61 6.01s.58 4.24 1.61 6.01c2.07 3.58 5.95 5.99 10.39 5.99h-13-3v-6c0-3.86-1.57-7.36-4.1-9.9-1.39-1.39-3.07-2.48-4.94-3.19z" fill="#69d6f4"/><circle cx="50" cy="30" fill="#4fc1e9" r="12"/><path d="m19 42v2c0 1.1.9 2 2 2h14c1.1 0 2-.9 2-2v-2z" fill="#fcd770"/><path d="m12 42h-6v-6c0-5.98 3.75-11.09 9.04-13.09.13 3.18.59 6.33 1.36 9.41.82 3.28 2 6.47 3.52 9.52l.08.16h-1z" fill="#ff826e"/><path d="m28 42h-3-5l.08-.16c1.52-3.05 2.7-6.24 3.52-9.52.77-3.07 1.23-6.23 1.36-9.41 1.87.71 3.55 1.8 4.94 3.19 2.53 2.54 4.1 6.04 4.1 9.9v6h-3z" fill="#ff826e"/><path d="m20 28 3.6 4.32c-.82 3.28-2 6.47-3.52 9.52l-.08.16-.08-.16c-1.52-3.05-2.7-6.24-3.52-9.52z" fill="#ccd1d9"/><path d="m24.96 22.91c-.13 3.18-.59 6.34-1.36 9.41l-3.6-4.32 3.22-5.63c.6.14 1.18.32 1.74.54z" fill="#e6e9ed"/><path d="m16.78 22.37 3.22 5.63-3.6 4.32c-.77-3.08-1.23-6.23-1.36-9.41.56-.22 1.14-.4 1.74-.54z" fill="#e6e9ed"/><path d="m23.22 22.37-3.22 5.63-3.22-5.63c1.03-.24 2.11-.37 3.22-.37s2.19.13 3.22.37z" fill="#f0d0b4"/><path d="m26.92 14c.06.32.08.66.08 1 0 3.87-3.13 7-7 7s-7-3.13-7-7c0-.34.02-.68.08-1 .48-3.4 3.39-6 6.92-6s6.44 2.6 6.92 6z" fill="#f0d0b4"/><path d="m58 2v19.05c-2.12-1.9-4.92-3.05-8-3.05s-5.88 1.15-8 3.05v-7.05-12z" fill="#ffeaa7"/><path d="m63 30c0-3.675-1.54-6.992-4-9.359v-19.641h-18v12h-13.263c-.892-3.445-4.018-6-7.737-6s-6.845 2.555-7.737 6h-6.263c-2.757 0-5 2.243-5 5v28c0 2.757 2.243 5 5 5h16v2h-5.764c-1.144 0-2.172.636-2.684 1.658l-1.552 3.106v5.236h32v-5.236l-1.553-3.105c-.511-1.023-1.54-1.659-2.683-1.659h-5.764v-2h16c2.757 0 5-2.243 5-5v-4.003c4.693-1.963 8-6.6 8-11.997zm-13 11c-1.36 0-2.806-1.499-3.792-4h7.584c-.986 2.501-2.432 4-3.792 4zm-4.501-21.026c-.557.858-1.034 1.882-1.421 3.026h-2.556c1.068-1.292 2.43-2.329 3.977-3.026zm12.98 3.026h-2.556c-.388-1.144-.865-2.168-1.421-3.026 1.546.697 2.908 1.734 3.977 3.026zm-1.505 6c-.056-1.413-.223-2.758-.495-4h3.307c.626 1.221 1.034 2.57 1.164 4zm-1.999 0h-9.949c.062-1.459.261-2.8.556-4h8.838c.294 1.2.492 2.541.555 4zm-1.183-6h-7.584c.986-2.501 2.432-4 3.792-4s2.806 1.499 3.792 4zm-13.578 2h3.307c-.271 1.242-.439 2.587-.495 4h-3.976c.13-1.43.538-2.779 1.164-4zm2.812 6c.056 1.413.223 2.758.495 4h-3.307c-.626-1.221-1.034-2.57-1.164-4zm1.051 6c.388 1.144.864 2.168 1.421 3.026-1.547-.697-2.909-1.734-3.977-3.026zm1.504-2c-.295-1.2-.493-2.541-.556-4h9.949c-.062 1.459-.261 2.8-.556 4zm11.393-4h3.976c-.13 1.43-.537 2.779-1.164 4h-3.307c.271-1.242.439-2.587.495-4zm.026-28v16.063c-2.023-1.299-4.422-2.063-7-2.063s-4.977.764-7 2.063v-16.063zm-16 12v5.641c-2.46 2.367-4 5.684-4 9.359 0 4.633 2.445 8.697 6.104 11h-8.104v-5c0-6.735-4.462-12.445-10.585-14.335 2.158-1.434 3.585-3.885 3.585-6.665zm-30 18v8h-4v-5c0-5.058 2.91-9.44 7.138-11.588.411 5.77 1.849 11.335 4.285 16.588h-5.423v-8zm22 8h-4v-8h-2v8h-5.423c2.436-5.252 3.874-10.817 4.285-16.588 4.228 2.148 7.138 6.53 7.138 11.588zm-16.699-17.457 2.486 4.35-1.866 2.24c-.436-2.141-.707-4.321-.833-6.529.07-.022.143-.039.213-.061zm3.699 6.019 2.509 3.011c-.634 2.416-1.474 4.778-2.509 7.079-1.034-2.302-1.875-4.663-2.509-7.079zm3.912-5.958c-.125 2.208-.396 4.389-.832 6.53l-1.867-2.24 2.486-4.35c.07.021.142.038.213.06zm-2.272-.489-1.64 2.869-1.64-2.869c.538-.068 1.083-.115 1.64-.115s1.102.047 1.64.115zm-1.64 19.885h4v2h-3c-.552 0-1-.448-1-1zm6 0h4v2h-4zm6 0h4v1c0 .552-.448 1-1 1h-3zm-12-34c3.309 0 6 2.691 6 6s-2.691 6-6 6-6-2.691-6-6 2.691-6 6-6zm-14 6h6c0 2.78 1.427 5.231 3.585 6.665-6.123 1.89-10.585 7.6-10.585 14.335v5h-2v-23c0-1.654 1.346-3 3-3zm10.236 40h5.764v2h-7.382l.724-1.447c.17-.341.512-.553.894-.553zm-2.236 6v-2h28v2zm25.764-6c.382 0 .725.212.895.553l.723 1.447h-7.382v-2zm-7.764 2h-8v-6h8zm18-8h-44c-1.654 0-3-1.346-3-3v-3h15v1c0 1.654 1.346 3 3 3h14c1.654 0 3-1.346 3-3v-1h15v3c0 1.654-1.346 3-3 3zm4.501-8.974c.557-.858 1.034-1.882 1.421-3.026h2.556c-1.068 1.292-2.43 2.329-3.977 3.026z"/><path d="m45 5h10v2h-10z"/><path d="m45 9h10v2h-10z"/><path d="m45 13h10v2h-10z"/></svg>