<svg id="Layer_5" enable-background="new 0 0 64 64" height="512" viewBox="0 0 64 64" width="512" xmlns="http://www.w3.org/2000/svg"><path d="m43 58v4h-30v-4h10 10z" fill="#969faa"/><path d="m33 54v4h-10v-4-4h10z" fill="#aab2bd"/><path d="m41.55 55.11 1.45 2.89h-10v-4h6.76c.76 0 1.45.43 1.79 1.11z" fill="#aab2bd"/><path d="m14.45 55.11c.34-.68 1.03-1.11 1.79-1.11h6.76v4h-10z" fill="#aab2bd"/><path d="m54 42v4c0 2.21-1.79 4-4 4h-17-10-17c-2.21 0-4-1.79-4-4v-4h17v2c0 1.1.9 2 2 2h4 6 4c1.1 0 2-.9 2-2v-2z" fill="#ccd1d9"/><path d="m31 42h-6-6v2c0 1.1.9 2 2 2h4 6 4c1.1 0 2-.9 2-2v-2z" fill="#fcd770"/><path d="m28.74 14h-.01-22.73c-2.209 0-4 1.791-4 4v24h17 6 6 6 17v-8.58l-6.001-.101c-10.585-.178-19.114-8.733-19.259-19.319z" fill="#69d6f4"/><path d="m28 19c0 2.89.72 5.62 2 8v10c0 .55-.45 1-1 1h-22c-.55 0-1-.45-1-1v-18c0-.55.45-1 1-1h21.03c-.02.33-.03.67-.03 1z" fill="#ff826e"/><path d="m28.03 18c.08-1.38.32-2.72.71-4 .36-1.15.83-2.25 1.42-3.28l8.08 6.47c-.16.58-.24 1.18-.24 1.81 0 3.87 3.13 7 7 7 .63 0 1.23-.08 1.81-.24l6.47 8.08c-2.44 1.38-5.27 2.16-8.28 2.16-6.5 0-12.14-3.64-15-9-1.28-2.38-2-5.11-2-8 0-.33.01-.67.03-1z" fill="#e6e9ed"/><path d="m62 19c0 3.01-.78 5.84-2.16 8.28l-8.08-6.47c.16-.58.24-1.18.24-1.81 0-3.87-3.13-7-7-7-.63 0-1.23.08-1.81.24l-6.47-8.08c2.44-1.38 5.27-2.16 8.28-2.16 9.39 0 17 7.61 17 17z" fill="#e6e9ed"/><path d="m52 19c0 .63-.08 1.23-.24 1.81-.32 1.21-.95 2.28-1.81 3.14s-1.93 1.49-3.14 1.81c-.58.16-1.18.24-1.81.24-3.87 0-7-3.13-7-7 0-.63.08-1.23.24-1.81.32-1.21.95-2.28 1.81-3.14s1.93-1.49 3.14-1.81c.58-.16 1.18-.24 1.81-.24 3.87 0 7 3.13 7 7zm-4 0c0-1.66-1.34-3-3-3s-3 1.34-3 3 1.34 3 3 3 3-1.34 3-3z" fill="#fcd770"/><g fill="#5cd6b3"><path d="m32.98 6.98 7.07 7.07c-.86.86-1.49 1.93-1.81 3.14l-8.08-6.47c.76-1.38 1.71-2.63 2.82-3.74z"/><path d="m36.72 4.16 6.47 8.08c-1.21.32-2.28.95-3.14 1.81l-7.07-7.07c1.11-1.11 2.36-2.06 3.74-2.82z"/><path d="m51.76 20.81 8.08 6.47c-.76 1.38-1.71 2.63-2.82 3.74l-7.07-7.07c.86-.86 1.49-1.93 1.81-3.14z"/><path d="m49.95 23.95 7.07 7.07c-.91.91-1.92 1.72-3.02 2.4-.23.15-.47.29-.72.42l-6.47-8.08c1.21-.32 2.28-.95 3.14-1.81z"/></g><path d="m45 23c2.206 0 4-1.794 4-4s-1.794-4-4-4-4 1.794-4 4 1.794 4 4 4zm0-6c1.103 0 2 .897 2 2s-.897 2-2 2-2-.897-2-2 .897-2 2-2z"/><path d="m23 33c-1.103 0-2-.897-2-2h-2c0 2.206 1.794 4 4 4s4-1.794 4-4-1.794-4-4-4c-1.103 0-2-.897-2-2s.897-2 2-2 2 .897 2 2h2c0-2.206-1.794-4-4-4s-4 1.794-4 4 1.794 4 4 4c1.103 0 2 .897 2 2s-.897 2-2 2z"/><path d="m13 35c2.206 0 4-1.794 4-4v-6c0-2.206-1.794-4-4-4s-4 1.794-4 4v6c0 2.206 1.794 4 4 4zm-2-10c0-1.103.897-2 2-2s2 .897 2 2v6c0 1.103-.897 2-2 2s-2-.897-2-2z"/><path d="m63 19c0-9.925-8.075-18-18-18-7.819 0-14.471 5.021-16.95 12h-22.05c-2.757 0-5 2.243-5 5v28c0 2.757 2.243 5 5 5h16v2h-5.764c-1.144 0-2.171.636-2.683 1.658l-1.553 3.106v5.236h32v-5.236l-1.553-3.105c-.511-1.023-1.539-1.659-2.683-1.659h-5.764v-2h16c2.757 0 5-2.243 5-5v-12.044c4.82-3.233 8-8.729 8-14.956zm-9.496 13.529-5.057-6.321c.517-.248 1.002-.548 1.45-.896l5.67 5.67c-.644.569-1.333 1.086-2.063 1.547zm-15.712-16.976-6.32-5.057c.461-.73.978-1.419 1.547-2.064l5.67 5.67c-.349.449-.649.934-.897 1.451zm2.31-2.865-5.67-5.67c.645-.569 1.334-1.086 2.064-1.547l5.057 6.321c-.517.248-1.002.548-1.451.896zm4.898.312c3.309 0 6 2.691 6 6s-2.691 6-6 6-6-2.691-6-6 2.691-6 6-6zm6.312 10.898c.349-.448.648-.934.897-1.451l6.32 5.057c-.461.73-.977 1.419-1.547 2.063zm9.688-4.898c0 2.402-.547 4.673-1.5 6.72l-6.633-5.307c.083-.46.133-.93.133-1.413 0-4.411-3.589-8-8-8-.483 0-.953.05-1.413.133l-5.307-6.634c2.047-.952 4.318-1.499 6.72-1.499 8.822 0 16 7.178 16 16zm-30.5-6.72 6.633 5.307c-.083.46-.133.93-.133 1.413 0 4.411 3.589 8 8 8 .483 0 .953-.05 1.413-.133l5.307 6.633c-2.047.953-4.318 1.5-6.72 1.5-8.822 0-16-7.178-16-16 0-2.402.547-4.673 1.5-6.72zm-1.5 14.928v9.792h-22v-18h20c0 2.958.73 5.744 2 8.208zm-12.764 27.792h5.764v2h-7.382l.724-1.447c.17-.341.513-.553.894-.553zm-2.236 6v-2h28v2zm25.764-6c.381 0 .724.212.894.553l.724 1.447h-7.382v-2zm-7.764 2h-8v-6h8zm18-8h-44c-1.654 0-3-1.346-3-3v-3h15v1c0 1.654 1.346 3 3 3h14c1.654 0 3-1.346 3-3v-1h15v3c0 1.654-1.346 3-3 3zm-14-6v1c0 .552-.449 1-1 1h-3v-2zm-6 2h-4v-2h4zm-6 0h-3c-.551 0-1-.448-1-1v-1h4zm29-4h-50v-23c0-1.654 1.346-3 3-3h21.464c-.149.655-.27 1.32-.346 2h-20.118c-1.103 0-2 .897-2 2v18c0 1.103.897 2 2 2h22c1.103 0 2-.897 2-2v-6.711c3.302 4.087 8.348 6.711 14 6.711 2.876 0 5.586-.695 8-1.899z"/><path d="m57 19h2c0-.721-.055-1.444-.165-2.152l-1.977.305c.095.607.142 1.229.142 1.847z"/><path d="m56.421 15.308 1.903-.615c-1.872-5.797-7.227-9.693-13.324-9.693v2c5.227 0 9.816 3.339 11.421 8.308z"/></svg>