<svg id="Layer_5" enable-background="new 0 0 64 64" height="512" viewBox="0 0 64 64" width="512" xmlns="http://www.w3.org/2000/svg"><path d="m30 62h-22-6v-7.97c0-3.57 2.37-6.71 5.8-7.69l6.27-1.79.93 7.45 4-4 4 4 .93-7.45 6.27 1.79c3.43.98 5.8 4.12 5.8 7.69v7.97z" fill="#ff826e"/><path d="m23.93 44.55-.93 7.45-4-4 3-4z" fill="#5cd6b3"/><path d="m16 44 3 4-4 4-.93-7.45z" fill="#5cd6b3"/><g fill="#f0d0b4"><path d="m22 41.13v2.87l-3 4-3-4v-2.87l3 1.87c1.11-.48 2.12-1.11 3-1.87z"/><path d="m25.41 36c-.65 1.98-1.83 3.76-3.41 5.13-.88.76-1.89 1.39-3 1.87l-3-1.87-2.09-2.39c-.56-.85-1.01-1.77-1.32-2.74-.39-1.15-.59-2.37-.59-3.62v-2.38h1.76c2.71 0 5.32-1.08 7.24-3l.88.88c1.12 1.12 2.57 1.84 4.12 2.04v.01 2.45c0 1.25-.2 2.47-.59 3.62z"/><path d="m27 30c.83 0 1.58.34 2.12.88.1.1.19.21.28.32.37.5.6 1.12.6 1.8 0 .83-.34 1.58-.88 2.12s-1.29.88-2.12.88h-1.59c.39-1.15.59-2.37.59-3.62v-2.45-.01c.33.06.66.08 1 .08z"/><path d="m12.59 36h-1.59c-1.66 0-3-1.34-3-3 0-.68.23-1.3.6-1.8.09-.11.18-.22.28-.32.54-.54 1.29-.88 2.12-.88h1v2.38c0 1.25.2 2.47.59 3.62z"/></g><path d="m27.99 24.14c1.73.44 3.01 1.99 3.01 3.86 0 .95-.35 1.81-.9 2.5l-.7.7c-.09-.11-.18-.22-.28-.32-.54-.54-1.29-.88-2.12-.88-.34 0-.67-.02-1-.08-1.55-.2-3-.92-4.12-2.04l-.88-.88c-1.92 1.92-4.53 3-7.24 3h-1.76-1c-.83 0-1.58.34-2.12.88-.1.1-.19.21-.28.32l-.7-.7c-.55-.69-.9-1.55-.9-2.5 0-1.87 1.28-3.42 3.01-3.86 0-.05-.01-.09-.01-.14 0-2.21 1.79-4 4-4 .5 0 .97.1 1.41.27.65-1.34 2-2.27 3.59-2.27s2.94.93 3.59 2.27c.44-.17.91-.27 1.41-.27 2.21 0 4 1.79 4 4 0 .05-.01.09-.01.14z" fill="#656d78"/><path d="m58 2h-10-12c-2.21 0-4 1.79-4 4v14c0 2.21 1.79 4 4 4h9 1 5 7c2.21 0 4-1.79 4-4v-14c0-2.21-1.79-4-4-4z" fill="#e6e9ed"/><path d="m48 30c4.42 0 8 3.58 8 8s-3.58 8-8 8-8-3.58-8-8 3.58-8 8-8zm4 8c0-2.21-1.79-4-4-4s-4 1.79-4 4 1.79 4 4 4 4-1.79 4-4z" fill="#fcd770"/><path d="m62 35v6l-2.56.63c-.21.66-.48 1.28-.79 1.88l1.37 2.27-4.24 4.24-2.27-1.37c-.6.31-1.22.58-1.88.79l-.63 2.56h-6l-.63-2.56c-.66-.21-1.28-.48-1.88-.79l-2.27 1.37-4.24-4.24 1.37-2.27c-.31-.6-.58-1.22-.79-1.88l-2.56-.63v-6l2.56-.63c.21-.66.48-1.28.79-1.88l-1.37-2.27 4.24-4.24 2.27 1.37c.6-.31 1.22-.58 1.88-.79l.63-2.56h1 5l.63 2.56c.66.21 1.28.48 1.88.79l2.27-1.37 4.24 4.24-1.37 2.27c.31.6.58 1.22.79 1.88zm-6 3c0-4.42-3.58-8-8-8s-8 3.58-8 8 3.58 8 8 8 8-3.58 8-8z" fill="#ffc729"/><path d="m50.231 7.641 4.467 5.359-4.467 5.359 1.538 1.282 5.533-6.641-5.533-6.641z"/><path d="m42.231 6.359-5.533 6.641 5.533 6.641 1.538-1.282-4.467-5.359 4.467-5.359z"/><path d="m38.938 12h16.125v2h-16.125z" transform="matrix(.124 -.992 .992 .124 28.271 58.025)"/><path d="m63 20v-14c0-2.757-2.243-5-5-5h-22c-2.757 0-5 2.243-5 5v14c0 .482.09.938.218 1.379-.866.241-1.695.605-2.471 1.058-.619-1.857-2.313-3.238-4.298-3.413.743-1.249 2.093-2.024 3.551-2.024v-2c-2.211 0-4.259 1.196-5.346 3.121l-.174.309c-.915-.902-2.146-1.43-3.48-1.43s-2.565.528-3.48 1.43l-.174-.309c-1.087-1.925-3.135-3.121-5.346-3.121v2c1.465 0 2.821.781 3.562 2.041-2.013.178-3.686 1.534-4.302 3.388-1.593-.935-3.394-1.429-5.26-1.429v2c1.413 0 2.772.363 3.998 1.028-1.225.921-1.998 2.37-1.998 3.972 0 1.138.388 2.22 1.122 3.129l.235.237c-.225.5-.357 1.051-.357 1.634 0 2.206 1.794 4 4 4h.881c.685 1.734 1.752 3.292 3.119 4.564v1.682l-7.473 2.134c-3.843 1.099-6.527 4.657-6.527 8.654v8.966h36v-8.966c0-3.997-2.684-7.556-6.527-8.654l-7.473-2.134v-1.682c1.367-1.272 2.434-2.831 3.119-4.564h.881c2.206 0 4-1.794 4-4 0-.582-.131-1.131-.356-1.631l.162-.162.071-.078c.735-.909 1.123-1.991 1.123-3.129 0-1.607-.778-3.06-2.01-3.98.693-.374 1.44-.641 2.208-.81.919 1.085 2.273 1.79 3.802 1.79h3.787l-5.069 5.069 1.492 2.465c-.154.33-.293.663-.416.995l-2.794.687v7.568l2.794.687c.123.332.262.665.416.995l-1.492 2.465 5.352 5.352 2.465-1.492c.33.154.663.293.995.416l.686 2.793h7.568l.687-2.794c.332-.123.664-.262.995-.416l2.465 1.492 5.352-5.352-1.492-2.465c.154-.331.293-.663.416-.995l2.793-.686v-7.568l-2.794-.687c-.123-.332-.262-.664-.416-.995l1.492-2.465-5.069-5.069h1.787c2.757 0 5-2.243 5-5zm-52 15c-1.103 0-2-.897-2-2s.897-2 2-2v1.384c0 .892.098 1.767.279 2.616zm4.738 14.847-.571-4.569.445-.127 2.067 2.756zm19.262 4.187v6.966h-4v-6h-2v6h-20v-6h-2v6h-4v-6.966c0-3.108 2.088-5.877 5.076-6.73l5.146-1.47 1.04 8.32 4.738-4.74 4.738 4.739 1.04-8.32 5.146 1.47c2.988.854 5.076 3.623 5.076 6.731zm-12.613-8.884.445.127-.571 4.569-1.941-1.94zm-1.387-1.483-2 2.666-2-2.666v-.58c.51.312 1.046.591 1.606.831l.394.17.394-.169c.561-.24 1.096-.52 1.606-.831zm-2-1.765c-3.659-1.747-6-5.438-6-9.519v-1.383h.758c2.667 0 5.192-.923 7.211-2.616l.203.202c1.073 1.073 2.392 1.804 3.828 2.161v1.637c0 4.081-2.341 7.771-6 9.518zm8-6.902h-.279c.181-.849.279-1.724.279-2.616v-1.384c1.103 0 2 .897 2 2s-.897 2-2 2zm2.375-5.201c-.666-.495-1.483-.799-2.375-.799-1.667 0-3.235-.649-4.414-1.828l-1.586-1.586-.707.707c-1.746 1.746-4.066 2.707-6.535 2.707h-2.758c-.892 0-1.709.304-2.375.799-.407-.533-.625-1.153-.625-1.799 0-1.364.93-2.555 2.261-2.895l.786-.2-.034-.812c-.002-.048-.007-.096-.012-.096 0 0-.001.001-.001.002 0-1.996 1.964-3.589 4.056-2.796l.855.323.398-.823c.508-1.051 1.54-1.703 2.691-1.703s2.183.652 2.69 1.704l.398.823.855-.323c2.094-.792 4.056.814 4.06 2.723l-.034.982.77.196c1.331.34 2.261 1.531 2.261 2.895 0 .646-.218 1.266-.625 1.799zm3.625-9.799v-14c0-1.654 1.346-3 3-3h22c1.654 0 3 1.346 3 3v14c0 1.654-1.346 3-3 3h-22c-1.654 0-3-1.346-3-3zm10.725 5-.195.794c-.332.123-.664.262-.995.416l-1.999-1.21zm14.038 7.946c.298.573.541 1.154.722 1.725l.169.536 2.346.577v4.432l-2.347.577-.169.536c-.181.57-.424 1.151-.722 1.725l-.259.498 1.255 2.074-3.133 3.133-2.074-1.255-.498.259c-.573.298-1.154.541-1.725.722l-.536.169-.576 2.346h-4.432l-.577-2.345-.534-.17c-.573-.182-1.154-.425-1.727-.723l-.498-.259-2.074 1.255-3.133-3.133 1.255-2.074-.259-.498c-.298-.572-.541-1.153-.723-1.727l-.17-.534-2.344-.576v-4.432l2.345-.577.17-.534c.182-.573.425-1.154.723-1.727l.259-.498-1.255-2.074 3.133-3.133 2.074 1.255.498-.259c.573-.298 1.154-.541 1.725-.722l.536-.169.576-2.346h4.433l.577 2.347.536.169c.57.181 1.151.424 1.725.722l.498.259 2.074-1.255 3.133 3.133-1.255 2.074zm-4.297-6.736c-.331-.154-.663-.293-.995-.416l-.196-.794h3.189z"/><path d="m18 57h2v2h-2z"/><path d="m18 53h2v2h-2z"/><path d="m48 29c-4.963 0-9 4.037-9 9s4.037 9 9 9 9-4.037 9-9-4.037-9-9-9zm0 16c-3.859 0-7-3.141-7-7s3.141-7 7-7 7 3.141 7 7-3.141 7-7 7z"/><path d="m48 33c-2.757 0-5 2.243-5 5s2.243 5 5 5 5-2.243 5-5-2.243-5-5-5zm0 8c-1.654 0-3-1.346-3-3s1.346-3 3-3 3 1.346 3 3-1.346 3-3 3z"/></svg>