<svg id="Layer_5" enable-background="new 0 0 64 64" height="512" viewBox="0 0 64 64" width="512" xmlns="http://www.w3.org/2000/svg"><path d="m13 2c6.08 0 11 4.92 11 11 0 3.04-1.23 5.79-3.22 7.78s-4.74 3.22-7.78 3.22c-6.08 0-11-4.92-11-11s4.92-11 11-11z" fill="#e6e9ed"/><path d="m62 13c0 6.08-4.92 11-11 11-3.04 0-5.79-1.23-7.78-3.22s-3.22-4.74-3.22-7.78c0-6.08 4.92-11 11-11s11 4.92 11 11z" fill="#5cd6b3"/><path d="m51 40c6.08 0 11 4.92 11 11s-4.92 11-11 11-11-4.92-11-11c0-3.04 1.23-5.79 3.22-7.78s4.74-3.22 7.78-3.22z" fill="#e6e9ed"/><path d="m20.78 43.22c1.99 1.99 3.22 4.74 3.22 7.78 0 6.08-4.92 11-11 11s-11-4.92-11-11 4.92-11 11-11c3.04 0 5.79 1.23 7.78 3.22z" fill="#5cd6b3"/><path d="m17 50c1.66 0 3 1.34 3 3s-1.34 3-3 3h-8c-1.66 0-3-1.34-3-3s1.34-3 3-3c0-2.21 1.79-4 4-4s4 1.79 4 4z" fill="#e6e9ed"/><g fill="#ff826e"><circle cx="55" cy="32" r="2"/><circle cx="32" cy="9" r="2"/><circle cx="9" cy="32" r="2"/><circle cx="32" cy="55" r="2"/></g><path d="m43 32v2l-2.4.66c-.17.53-.38 1.05-.64 1.54l1.23 2.16-1.41 1.42-1.42 1.41-2.16-1.23c-.49.26-1.01.47-1.54.64l-.66 2.4h-2-2l-.66-2.4c-.53-.17-1.05-.38-1.54-.64l-2.16 1.23-1.42-1.41-1.41-1.42 1.23-2.16c-.26-.49-.47-1.01-.64-1.54l-2.4-.66v-2-2l2.4-.66c.17-.53.38-1.05.64-1.54l-1.23-2.16 2.83-2.83 2.16 1.23c.49-.26 1.01-.47 1.54-.64l.66-2.4h2 2l.66 2.4c.53.17 1.05.38 1.54.64l2.16-1.23 2.83 2.83-1.23 2.16c.26.49.47 1.01.64 1.54l2.4.66zm-6 0c0-2.76-2.24-5-5-5s-5 2.24-5 5 2.24 5 5 5 5-2.24 5-5z" fill="#fcd770"/><path d="m51 39c-2.949 0-5.649 1.074-7.741 2.845l-2.067-2.067 1.247-1.247-1.351-2.365c.104-.227.2-.455.286-.685l2.626-.717v-1.764h8.184c.414 1.161 1.514 2 2.816 2 1.654 0 3-1.346 3-3s-1.346-3-3-3c-1.302 0-2.402.839-2.816 2h-8.184v-1.764l-2.625-.718c-.086-.229-.182-.458-.286-.685l1.351-2.365-1.247-1.247 2.067-2.067c2.091 1.772 4.791 2.846 7.74 2.846 6.617 0 12-5.383 12-12s-5.383-12-12-12-12 5.383-12 12c0 2.949 1.074 5.649 2.845 7.741l-2.067 2.067-1.247-1.247-2.365 1.35c-.226-.104-.454-.199-.685-.285l-.717-2.626h-1.764v-8.184c1.161-.414 2-1.514 2-2.816 0-1.654-1.346-3-3-3s-3 1.346-3 3c0 1.302.839 2.402 2 2.816v8.184h-1.764l-.718 2.625c-.229.086-.458.182-.685.286l-2.365-1.351-1.247 1.247-2.067-2.067c1.772-2.091 2.846-4.791 2.846-7.74 0-6.617-5.383-12-12-12s-12 5.383-12 12 5.383 12 12 12c2.949 0 5.649-1.074 7.741-2.845l2.067 2.067-1.247 1.247 1.351 2.365c-.104.227-.2.455-.286.685l-2.626.717v1.764h-8.184c-.414-1.161-1.514-2-2.816-2-1.654 0-3 1.346-3 3s1.346 3 3 3c1.302 0 2.402-.839 2.816-2h8.184v1.764l2.625.718c.086.229.182.458.286.685l-1.351 2.365 1.247 1.247-2.067 2.067c-2.091-1.772-4.791-2.846-7.74-2.846-6.617 0-12 5.383-12 12s5.383 12 12 12 12-5.383 12-12c0-2.949-1.074-5.649-2.845-7.741l2.067-2.067 1.247 1.247 2.365-1.351c.227.104.455.2.685.286l.717 2.626h1.764v8.184c-1.161.414-2 1.514-2 2.816 0 1.654 1.346 3 3 3s3-1.346 3-3c0-1.302-.839-2.402-2-2.816v-8.184h1.764l.718-2.625c.23-.086.459-.182.685-.285l2.365 1.35 1.247-1.247 2.067 2.067c-1.772 2.091-2.846 4.791-2.846 7.74 0 6.617 5.383 12 12 12s12-5.383 12-12-5.383-12-12-12zm4-8c.552 0 1 .448 1 1s-.448 1-1 1-1-.448-1-1 .448-1 1-1zm-4-28c5.514 0 10 4.486 10 10s-4.486 10-10 10-10-4.486-10-10 4.486-10 10-10zm-19 5c.552 0 1 .448 1 1s-.448 1-1 1-1-.448-1-1 .448-1 1-1zm-19 15c-5.514 0-10-4.486-10-10s4.486-10 10-10 10 4.486 10 10-4.486 10-10 10zm-4 10c-.552 0-1-.448-1-1s.448-1 1-1 1 .448 1 1-.448 1-1 1zm4 28c-5.514 0-10-4.486-10-10s4.486-10 10-10 10 4.486 10 10-4.486 10-10 10zm19-5c-.552 0-1-.448-1-1s.448-1 1-1 1 .448 1 1-.448 1-1 1zm6.197-16.055-1.98-1.13-.486.259c-.444.235-.905.428-1.369.571l-.524.161-.602 2.194h-2.473l-.601-2.193-.524-.161c-.462-.143-.923-.335-1.37-.572l-.485-.258-1.98 1.13-1.748-1.748 1.13-1.98-.258-.485c-.237-.447-.43-.908-.572-1.37l-.161-.524-2.194-.603v-2.473l2.193-.601.161-.524c.143-.462.335-.923.572-1.37l.258-.485-1.13-1.98 1.748-1.748 1.98 1.13.485-.258c.447-.237.908-.43 1.37-.572l.524-.161.603-2.194h2.473l.601 2.193.524.161c.464.144.925.336 1.369.571l.486.259 1.98-1.13 1.748 1.748-1.13 1.98.258.485c.237.447.43.908.572 1.37l.161.524 2.194.603v2.473l-2.193.601-.161.524c-.143.462-.335.923-.572 1.37l-.258.485 1.13 1.98zm12.803 21.055c-5.514 0-10-4.486-10-10s4.486-10 10-10 10 4.486 10 10-4.486 10-10 10z"/><path d="m17.707 8.293-1.414 1.414 3.293 3.293-3.293 3.293 1.414 1.414 4.707-4.707z"/><path d="m8.293 8.293-4.707 4.707 4.707 4.707 1.414-1.414-3.293-3.293 3.293-3.293z"/><path d="m5.929 12h14.142v2.001h-14.142z" transform="matrix(.142 -.99 .99 .142 -1.709 24.029)"/><path d="m32 26c-3.309 0-6 2.691-6 6s2.691 6 6 6 6-2.691 6-6-2.691-6-6-6zm0 10c-2.206 0-4-1.794-4-4s1.794-4 4-4 4 1.794 4 4-1.794 4-4 4z"/><path d="m45 11h12v2h-12z"/><path d="m45 15h12v2h-12z"/><path d="m45 7h12v2h-12z"/><path d="m54 19h2v2h-2z"/><path d="m50 19h2v2h-2z"/><path d="m46 19h2v2h-2z"/><path d="m44 47h2v8h-2z"/><path d="m48 47h2v8h-2z"/><path d="m52 47h2v8h-2z"/><path d="m56 47h2v8h-2z"/><path d="m17.92 49.106c-.422-2.332-2.468-4.106-4.92-4.106s-4.498 1.774-4.92 4.106c-1.764.417-3.08 2.005-3.08 3.894 0 2.206 1.794 4 4 4h8c2.206 0 4-1.794 4-4 0-1.889-1.316-3.477-3.08-3.894zm-.92 5.894h-8c-1.103 0-2-.897-2-2s.897-2 2-2h1v-1c0-1.654 1.346-3 3-3s3 1.346 3 3v1h1c1.103 0 2 .897 2 2s-.897 2-2 2z"/></svg>