<svg id="Layer_5" enable-background="new 0 0 64 64" height="512" viewBox="0 0 64 64" width="512" xmlns="http://www.w3.org/2000/svg"><path d="m33 17v10h-11l-7-3v-4h9v-3z" fill="#e6e9ed"/><path d="m50 8v10h-3l-.68 2.71c-.1.04-.2.07-.3.12l-2.38-1.44-4.25 4.25 1.44 2.38c-.05.1-.08.2-.12.3l-2.71.68v6l.8.2-10.8 10.8h-24c-1.1 0-2-.9-2-2v-32h15l2-2z" fill="#e6e9ed"/><path d="m24 17v3h-9-9v-6h18z" fill="#fcd770"/><path d="m24 34v6h-18v-6h9z" fill="#fcd770"/><path d="m22 27-7 3-7-3 7-3z" fill="#4fc1e9"/><path d="m2 10v-6c0-1.1.9-2 2-2h44c1.1 0 2 .9 2 2v4h-31l-2 2z" fill="#5cd6b3"/><path d="m30 58-10 4c-.55 0-1.05-.22-1.41-.59-.37-.36-.59-.86-.59-1.41l4-10 4 4z" fill="#aab2bd"/><path d="m43.64 40.61 2.38-1.44c.1.05.2.08.3.12l.48 1.91-16.8 16.8-4-4 15.51-15.51z" fill="#5cd6b3"/><path d="m39.39 36.36 2.12 2.13-15.51 15.51-4-4 6-6 10.8-10.8 1.91.48c.04.1.07.2.12.3z" fill="#ff826e"/><path d="m62 27v6l-2.71.68c-.04.1-.07.2-.12.3l1.44 2.38-4.25 4.25-2.38-1.44c-.1.05-.2.08-.3.12l-.68 2.71h-6l-.2-.8-.48-1.91c-.1-.04-.2-.07-.3-.12l-2.38 1.44-2.13-2.12-2.12-2.13 1.44-2.38c-.05-.1-.08-.2-.12-.3l-1.91-.48-.8-.2v-6l2.71-.68c.04-.1.07-.2.12-.3l-1.44-2.38 4.25-4.25 2.38 1.44c.1-.05.2-.08.3-.12l.68-2.71h3 3l.68 2.71c.1.04.2.07.3.12l2.38-1.44 4.25 4.25-1.44 2.38c.05.1.08.2.12.3zm-6 3c0-3.31-2.69-6-6-6s-6 2.69-6 6 2.69 6 6 6 6-2.69 6-6z" fill="#fcd770"/><path d="m9 5h2v2h-2z"/><path d="m13 5h2v2h-2z"/><path d="m5 5h2v2h-2z"/><path d="m50 23c-3.86 0-7 3.141-7 7s3.14 7 7 7 7-3.141 7-7-3.14-7-7-7zm0 12c-2.757 0-5-2.243-5-5s2.243-5 5-5 5 2.243 5 5-2.243 5-5 5z"/><path d="m63 26.219-2.416-.603 1.281-2.136-5.347-5.346-2.134 1.281-.603-2.415h-2.781v-13c0-1.654-1.346-3-3-3h-44c-1.654 0-3 1.346-3 3v38c0 1.654 1.346 3 3 3h21.586l-4.438 4.438-4.148 10.37v.192c0 1.654 1.346 3 3 3h.192l10.37-4.147 15.853-15.853h7.367l.603-2.416 2.134 1.281 5.347-5.346-1.281-2.136 2.415-.602zm-59-23.219h44c.551 0 1 .448 1 1v3h-30.414l-2 2h-13.586v-5c0-.552.449-1 1-1zm0 40c-.551 0-1-.448-1-1v-31h14.414l2-2h29.586v8h-2.781l-.603 2.416-2.134-1.281-5.347 5.346 1.281 2.136-2.416.602v7.368l-9.414 9.413zm23.414 11 14.101-14.101 1.967 1.966 2.134-1.281.077.309-15.693 15.693zm-1.414-1.414-2.586-2.586 15.694-15.693.308.077-1.281 2.136 1.966 1.966zm-6.161 8.401c-.423-.068-.758-.403-.827-.827l3.352-8.381 5.855 5.855zm41.161-28.768-2.446.611-.503 1.22 1.296 2.159-3.138 3.139-2.158-1.296-1.22.496-.612 2.452h-4.438l-.487-1.949-.203-.535-1.142-.464-2.158 1.296-3.138-3.139 1.296-2.159-.5-1.22-2.449-.611v-4.438l2.446-.611.503-1.22-1.296-2.159 3.138-3.139 2.158 1.296 1.22-.496.612-2.452h4.438l.487 1.949.203.535 1.142.464 2.158-1.296 3.138 3.139-1.296 2.159.503 1.22 2.446.611z"/><path d="m22.205 28h11.795v-12h-9v-3h-20v8h9v2.341l-8.539 3.659 8.539 3.659v2.341h-9v8h20v-8h-9v-2.341zm.795 11h-16v-4h16zm-16-24h16v4h-16zm18 6v-3h7v8h-9.795l-6.205-2.659v-2.341zm-10 4.088 4.461 1.912-4.461 1.912-4.461-1.912z"/></svg>