<svg id="Layer_5" enable-background="new 0 0 64 64" height="512" viewBox="0 0 64 64" width="512" xmlns="http://www.w3.org/2000/svg"><path d="m30 46v4h-18v-4h10z" fill="#969faa"/><path d="m13.45 43.11c.34-.68 1.03-1.11 1.79-1.11h6.76v4h-10z" fill="#aab2bd"/><path d="m30 38v8h-8v-4-4z" fill="#aab2bd"/><path d="m30 34v4h-8-16c-2.21 0-4-1.79-4-4v-4h16v2c0 1.1.9 2 2 2h4z" fill="#ccd1d9"/><path d="m24 30v4h-4c-1.1 0-2-.9-2-2v-2z" fill="#ff826e"/><path d="m24 30h6v4h-6z" fill="#ff826e"/><path d="m46 2h-40c-2.21 0-4 1.79-4 4v24h48l-.01-24h.01c0-2.21-1.79-4-4-4z" fill="#69d6f4"/><circle cx="50" cy="18" fill="#4fc1e9" r="12"/><path d="m54 22c.57 0 1.12.12 1.6.34 1.42.62 2.4 2.02 2.4 3.66v.94 31.06c0 2.21-1.79 4-4 4h-20c-2.21 0-4-1.79-4-4v-8-4-8-4-4-4c0-2.21 1.79-4 4-4h4.68 5.66z" fill="#cf9e76"/><path d="m53 26h-18c-.55 0-1 .45-1 1v11 12 7c0 .55.45 1 1 1h18c.55 0 1-.45 1-1v-7-12-11c0-.55-.45-1-1-1z" fill="#e6e9ed"/><path d="m50 43v2c0 .55-.45 1-1 1h-10c-.55 0-1-.45-1-1v-2c0-.55.45-1 1-1h10c.55 0 1 .45 1 1z" fill="#5cd6b3"/><path d="m50 31v2c0 .55-.45 1-1 1h-10c-.55 0-1-.45-1-1v-2c0-.55.45-1 1-1h10c.55 0 1 .45 1 1z" fill="#5cd6b3"/><path d="m34 12v10c-2.21 0-4 1.79-4 4h-16v-6h10v-8z" fill="#fcd770"/><path d="m24 12v8h-10-8v-14h18z" fill="#ff826e"/><path d="m63 18c0-6.863-5.35-12.487-12.096-12.954-.448-2.302-2.474-4.046-4.904-4.046h-40c-2.757 0-5 2.243-5 5v28c0 2.757 2.243 5 5 5h15v2h-5.764c-1.144 0-2.171.636-2.683 1.658l-1.553 3.106v5.236h18v7c0 2.757 2.243 5 5 5h20c2.757 0 5-2.243 5-5v-30.642c2.54-2.445 4-5.822 4-9.358zm-6.318 3.795c.145-.909.234-1.841.272-2.795h3.993c-.187 2.042-.942 3.984-2.167 5.613-.342-1.175-1.089-2.173-2.098-2.818zm-2.89-10.795h-7.584c.986-2.501 2.433-4 3.792-4s2.806 1.499 3.792 4zm7.157 6h-3.976c-.056-1.413-.223-2.758-.495-4h3.307c.627 1.221 1.035 2.57 1.164 4zm-5.974 0h-9.949c.062-1.459.261-2.8.556-4h8.838c.294 1.2.492 2.541.555 4zm-10.898-6h-2.556c1.069-1.292 2.43-2.329 3.977-3.026-.556.858-1.033 1.882-1.421 3.026zm-3.863 2h3.307c-.271 1.242-.439 2.587-.495 4h-3.976c.13-1.43.538-2.779 1.164-4zm-.792 8c-.185-.653-.313-1.321-.374-2h3.995c.027.678.08 1.343.162 2zm5.797 0c-.089-.654-.147-1.32-.177-2h9.912c-.031.707-.093 1.399-.188 2.078-.251-.04-.504-.078-.766-.078zm13.26-10h-2.556c-.387-1.144-.864-2.168-1.421-3.026 1.546.697 2.908 1.734 3.977 3.026zm-52.479-8h40c1.324 0 2.437.867 2.834 2.059-6.623.592-11.834 6.167-11.834 12.941 0 1.018.126 2.021.357 3h-2.357v-10h-10v-6h-20v16h8v6h16v2h-26v-23c0-1.654 1.346-3 3-3zm1 16v-12h16v12zm12 12h4v2h-3c-.551 0-1-.448-1-1zm6 0h4v2h-4zm-22 3v-3h14v1c0 1.654 1.346 3 3 3h9v2h-23c-1.654 0-3-1.346-3-3zm26 5v6h-6v-6zm-13.764 4h5.764v2h-7.382l.724-1.447c.17-.341.513-.553.894-.553zm-2.236 6v-2h16v2zm16.101-24h-14.101v-4h10v-8h8v8.101c-1.956.399-3.5 1.943-3.899 3.899zm27.899 33c0 1.654-1.346 3-3 3h-20c-1.654 0-3-1.346-3-3v-32c0-1.654 1.346-3 3-3h20c1.654 0 3 1.346 3 3z"/><path d="m53 25h-18c-1.103 0-2 .897-2 2v30c0 1.103.897 2 2 2h18c1.103 0 2-.897 2-2v-30c0-1.103-.897-2-2-2zm-18 2h18v10h-18.001v-10zm18 12v10h-18v-10zm-18 18v-6h18v6z"/><path d="m39 35h10c1.103 0 2-.897 2-2v-2c0-1.103-.897-2-2-2h-10c-1.103 0-2 .897-2 2v2c0 1.103.897 2 2 2zm0-4h10l.001 2h-10.001z"/><path d="m39 47h10c1.103 0 2-.897 2-2v-2c0-1.103-.897-2-2-2h-10c-1.103 0-2 .897-2 2v2c0 1.103.897 2 2 2zm0-4h10l.001 2h-10.001z"/><path d="m41 53h2v2h-2z"/><path d="m45 53h2v2h-2z"/><path d="m49 53h2v2h-2z"/><path d="m39 5h2v2h-2z"/><path d="m35 5h2v2h-2z"/><path d="m27 5h2v2h-2z"/><path d="m31 5h2v2h-2z"/></svg>