<svg id="Layer_5" enable-background="new 0 0 64 64" height="512" viewBox="0 0 64 64" width="512" xmlns="http://www.w3.org/2000/svg"><path d="m58 6h4v56h-4z" fill="#5cd6b3"/><path d="m54 6h4v56h-4z" fill="#fcd770"/><path d="m50 6h4v56h-4z" fill="#f0d0b4"/><path d="m46 6h4v56h-4z" fill="#ffeaa7"/><path d="m36 12-2 8.55c1.19.7 2 1.97 2 3.45 0 2.21-1.79 4-4 4s-4-1.79-4-4c0-1.48.81-2.75 2-3.45l-2-8.55z" fill="#e6e9ed"/><path d="m12 6v10h-10v46h44v-56z" fill="#e6e9ed"/><path d="m42 2v1l-.67 3-1.33 6h-4-8-4l-1.33-6-.67-3v-1z" fill="#969faa"/><path d="m12 6v10h-10z" fill="#5cd6b3"/><path d="m38 36h-12-16c-1.1 0-2 .9-2 2v18c0 1.1.9 2 2 2h12 16c1.1 0 2-.9 2-2v-18c0-1.1-.9-2-2-2z" fill="#ff826e"/><path d="m38 35h-28c-1.654 0-3 1.346-3 3v18c0 1.654 1.346 3 3 3h28c1.654 0 3-1.346 3-3v-18c0-1.654-1.346-3-3-3zm1 21c0 .552-.448 1-1 1h-28c-.552 0-1-.448-1-1v-18c0-.552.448-1 1-1h28c.552 0 1 .448 1 1z"/><path d="m27.359 42.769 5.079 4.231-5.079 4.231 1.282 1.538 6.921-5.769-6.921-5.769z"/><path d="m19.359 41.231-6.921 5.769 6.921 5.769 1.282-1.538-5.079-4.231 5.079-4.231z"/><path d="m15.754 46h16.492v1.999h-16.492z" transform="matrix(.242 -.97 .97 .242 -27.415 58.896)"/><path d="m42.58 5 .396-1.783.024-2.217h-22v2l.439 2h-9.853l-10.586 10.586v47.414h62v-58zm8.42 2h2v54h-2zm-2 54h-2v-54h2zm6-54h2v54h-2zm-14.024-4-1.778 8h-14.396l-1.778-8zm-7.479 18.419c.941.548 1.503 1.513 1.503 2.581 0 1.654-1.346 3-3 3s-3-1.346-3-3c0-1.068.562-2.033 1.503-2.581l.639-.372-1.881-8.047h5.479l-1.881 8.047zm-22.497-13.005v6.586h-6.586zm-8 8.586h10v-10h8.878l.878 4h-1.756v2h6.207l1.665 7.121c-1.17.942-1.872 2.37-1.872 3.879 0 2.757 2.243 5 5 5s5-2.243 5-5c0-1.509-.702-2.937-1.872-3.879l1.665-7.121h6.207v-2h-1.753l.889-4h2.864v54h-42zm58 44h-2v-54h2z"/><path d="m5 19h2v2h-2z"/><path d="m9 19h16v2h-16z"/><path d="m5 23h20v2h-20z"/><path d="m5 27h20v2h-20z"/><path d="m19 31h2v2h-2z"/><path d="m23 31h2v2h-2z"/><path d="m5 31h12v2h-12z"/></svg>