<svg id="Layer_5" enable-background="new 0 0 64 64" height="512" viewBox="0 0 64 64" width="512" xmlns="http://www.w3.org/2000/svg"><path d="m58 24h-44c-2.209 0-4-1.791-4-4v-14c0-2.209 1.791-4 4-4h44c2.209 0 4 1.791 4 4v14c0 2.209-1.791 4-4 4z" fill="#e6e9ed"/><path d="m31.95 24c.02.33.05.66.05 1 0 7.25-5.15 13.31-12 14.7-.97.2-1.97.3-3 .3s-2.03-.1-3-.3c-6.85-1.39-12-7.45-12-14.7 0-5.75 3.24-10.75 8-13.26v4.77c-2.44 2.02-4 5.07-4 8.49 0 6.08 4.92 11 11 11s11-4.92 11-11c0-.34-.02-.67-.05-1z" fill="#fcd770"/><path d="m27.95 24c.03.33.05.66.05 1 0 6.08-4.92 11-11 11s-11-4.92-11-11c0-3.42 1.56-6.47 4-8.49v3.49c0 2.21 1.79 4 4 4z" fill="#69d6f4"/><circle cx="41" cy="48" fill="#69d6f4" r="14"/><path d="m21 48v10c0 1.1-.45 2.1-1.17 2.83-.73.72-1.73 1.17-2.83 1.17-2.21 0-4-1.79-4-4v-10c0-.74.4-1.38 1-1.73.29-.17.64-.27 1-.27h4c.36 0 .71.1 1 .27.6.35 1 .99 1 1.73z" fill="#969faa"/><path d="m20 39.7v6.57c-.29-.17-.64-.27-1-.27h-4c-.36 0-.71.1-1 .27v-6.57c.97.2 1.97.3 3 .3s2.03-.1 3-.3z" fill="#ccd1d9"/><path d="m55.378 17.094-1.186-5.334c-.229-1.036-1.13-1.76-2.192-1.76s-1.963.724-2.193 1.76l-1.186 5.334-1.63-12.226-1.982.264 2.116 15.868h2.678l1.957-8.807c.05-.225.432-.225.481 0l1.957 8.807h2.678l2.116-15.868-1.982-.264z"/><path d="m39.378 17.094-1.186-5.334c-.229-1.036-1.13-1.76-2.192-1.76s-1.963.724-2.193 1.76l-1.186 5.334-1.63-12.226-1.982.264 2.116 15.868h2.678l1.957-8.807c.05-.225.432-.225.481 0l1.957 8.807h2.678l2.116-15.868-1.982-.264z"/><path d="m23.378 17.094-1.186-5.334c-.229-1.036-1.13-1.76-2.192-1.76s-1.963.724-2.193 1.76l-1.186 5.334-1.63-12.226-1.982.264 2.116 15.868h2.678l1.957-8.807c.05-.225.432-.225.481 0l1.957 8.807h2.678l2.116-15.868-1.982-.264z"/><path d="m58 1h-44c-2.757 0-5 2.243-5 5v5.16c-4.947 2.861-8 8.104-8 13.84 0 7.439 5.111 13.69 12 15.473v5.307c-.609.549-1 1.337-1 2.22v10c0 2.757 2.243 5 5 5s5-2.243 5-5v-10c0-.883-.391-1.67-1-2.22v-5.307c6.889-1.783 12-8.034 12-15.473h25c2.757 0 5-2.243 5-5v-14c0-2.757-2.243-5-5-5zm-31 24c0 5.514-4.486 10-10 10s-10-4.486-10-10c0-2.189.715-4.277 2-5.99v.99c0 2.757 2.243 5 5 5zm-7 33c0 1.654-1.346 3-3 3s-3-1.346-3-3v-10c0-.552.449-1 1-1h4c.551 0 1 .448 1 1zm-1-13h-4v-4.139c.657.083 1.321.139 2 .139s1.343-.056 2-.139zm-2-6c-7.72 0-14-6.28-14-14 0-4.62 2.264-8.876 6-11.477v2.556c-2.54 2.278-4 5.494-4 8.921 0 6.617 5.383 12 12 12s12-5.383 12-12h2c0 7.72-6.28 14-14 14zm44-19c0 1.654-1.346 3-3 3h-44c-1.654 0-3-1.346-3-3v-14c0-1.654 1.346-3 3-3h44c1.654 0 3 1.346 3 3z"/><path d="m24.668 27.285-1.917-.57c-.75 2.523-3.115 4.285-5.751 4.285v2c3.514 0 6.667-2.35 7.668-5.715z"/><path d="m41 33c-8.271 0-15 6.729-15 15s6.729 15 15 15 15-6.729 15-15-6.729-15-15-15zm3.802 6.76c-1.221.153-2.497.24-3.802.24s-2.581-.087-3.802-.24c.986-2.975 2.438-4.76 3.802-4.76s2.816 1.785 3.802 4.76zm.276-4.095c1.821.604 3.459 1.6 4.825 2.888-.933.355-1.971.651-3.088.88-.464-1.482-1.053-2.752-1.737-3.768zm-9.057 11.335c.06-1.95.287-3.735.638-5.294 1.394.19 2.854.294 4.341.294s2.947-.104 4.34-.294c.351 1.559.578 3.344.638 5.294zm9.958 2c-.06 1.95-.287 3.735-.638 5.294-1.394-.19-2.854-.294-4.341-.294s-2.947.104-4.34.294c-.351-1.559-.578-3.344-.638-5.294zm-10.795-9.567c-1.117-.229-2.154-.525-3.088-.88 1.366-1.288 3.004-2.284 4.825-2.888-.683 1.016-1.272 2.286-1.737 3.768zm-.503 1.934c-.373 1.703-.602 3.599-.659 5.633h-5.971c.197-2.572 1.145-4.931 2.625-6.869 1.182.511 2.533.928 4.005 1.236zm-.659 7.633c.057 2.034.286 3.93.659 5.633-1.472.308-2.824.725-4.005 1.236-1.481-1.938-2.428-4.297-2.625-6.869zm1.162 7.567c.465 1.482 1.054 2.752 1.737 3.768-1.821-.604-3.459-1.6-4.825-2.888.934-.355 1.971-.651 3.088-.88zm2.014-.327c1.221-.153 2.497-.24 3.802-.24s2.581.087 3.802.24c-.986 2.975-2.438 4.76-3.802 4.76s-2.816-1.785-3.802-4.76zm9.618.327c1.117.229 2.154.525 3.088.88-1.366 1.288-3.004 2.284-4.825 2.888.683-1.016 1.272-2.286 1.737-3.768zm.503-1.934c.373-1.703.602-3.599.659-5.633h5.971c-.197 2.572-1.145 4.931-2.625 6.869-1.182-.511-2.533-.928-4.005-1.236zm.659-7.633c-.057-2.034-.286-3.93-.659-5.633 1.472-.308 2.824-.725 4.005-1.236 1.481 1.938 2.428 4.297 2.625 6.869z"/></svg>