<svg id="Layer_5" enable-background="new 0 0 64 64" height="512" viewBox="0 0 64 64" width="512" xmlns="http://www.w3.org/2000/svg"><g fill="#f0d0b4"><path d="m62 46v16h-16v-8-8z"/><path d="m62 2v16h-16v-8-8z"/><path d="m46 24h16v16h-16z"/></g><path d="m2 14c0-2.21 1.79-4 4-4h24c2.21 0 4 1.79 4 4z" fill="#aab2bd"/><path d="m2 14v36c0 2.21 1.79 4 4 4h24c2.21 0 4-1.79 4-4v-10-8-8-10z" fill="#fcd770"/><path d="m29 18h-22c-.55 0-1 .45-1 1v11 12 12h24v-12-12-11c0-.55-.45-1-1-1z" fill="#ffeaa7"/><circle cx="12" cy="48" fill="#ff826e" r="2"/><circle cx="12" cy="36" fill="#ff826e" r="2"/><circle cx="12" cy="24" fill="#ff826e" r="2"/><path d="m12 27c1.654 0 3-1.346 3-3s-1.346-3-3-3-3 1.346-3 3 1.346 3 3 3zm0-4c.552 0 1 .448 1 1s-.448 1-1 1-1-.448-1-1 .448-1 1-1z"/><path d="m25 21h2v6h-2z"/><path d="m21 21h2v6h-2z"/><path d="m12 33c-1.654 0-3 1.346-3 3s1.346 3 3 3 3-1.346 3-3-1.346-3-3-3zm0 4c-.552 0-1-.448-1-1s.448-1 1-1 1 .448 1 1-.448 1-1 1z"/><path d="m25 33h2v6h-2z"/><path d="m21 33h2v6h-2z"/><path d="m12 45c-1.654 0-3 1.346-3 3s1.346 3 3 3 3-1.346 3-3-1.346-3-3-3zm0 4c-.552 0-1-.448-1-1s.448-1 1-1 1 .448 1 1-.448 1-1 1z"/><path d="m25 45h2v6h-2z"/><path d="m21 45h2v6h-2z"/><path d="m63 19v-18h-18v8h-3c-1.654 0-3 1.346-3 3v10c0 .552-.448 1-1 1h-3v-9c0-2.757-2.243-5-5-5h-24c-2.757 0-5 2.243-5 5v36c0 2.757 2.243 5 5 5h24c2.757 0 5-2.243 5-5v-9h3c.552 0 1 .448 1 1v10c0 1.654 1.346 3 3 3h3v8h18v-18h-18v8h-3c-.552 0-1-.448-1-1v-10c0-1.654-1.346-3-3-3h-3v-6h10v8h18v-18h-18v8h-10v-6h3c1.654 0 3-1.346 3-3v-10c0-.552.448-1 1-1h3v8zm-16 28h14v14h-14zm0-22h14v14h-14zm-41-14h24c1.302 0 2.402.839 2.816 2h-29.632c.414-1.161 1.514-2 2.816-2zm23 18h-22v-10h22zm-22 2h22v10h-22zm0 12h22v10h-22zm24 9.816v-33.816c0-1.103-.897-2-2-2h-22c-1.103 0-2 .897-2 2v33.816c-1.161-.414-2-1.514-2-2.816v-35h30v35c0 1.302-.839 2.402-2 2.816zm16-49.816h14v14h-14z"/><path d="m49 5h10v2h-10z"/><path d="m49 9h10v2h-10z"/><path d="m49 13h6v2h-6z"/><path d="m57 13h2v2h-2z"/><path d="m49 27h10v2h-10z"/><path d="m49 31h2v2h-2z"/><path d="m53 31h6v2h-6z"/><path d="m49 35h10v2h-10z"/><path d="m49 49h2v2h-2z"/><path d="m53 49h6v2h-6z"/><path d="m53 53h6v2h-6z"/><path d="m53 57h6v2h-6z"/><path d="m49 57h2v2h-2z"/><path d="m49 53h2v2h-2z"/></svg>