<svg id="Layer_5" enable-background="new 0 0 64 64" height="512" viewBox="0 0 64 64" width="512" xmlns="http://www.w3.org/2000/svg"><path d="m46.81 25.76 6.47 8.08c-2.44 1.38-5.27 2.16-8.28 2.16-3.31 0-6.39-.94-9-2.58v-6.42c0-1.66-1.34-3-3-3h-4.25c-.48-1.58-.75-3.26-.75-5 0-.33.01-.67.03-1 .15-2.63.9-5.11 2.13-7.28l8.08 6.47c-.16.58-.24 1.18-.24 1.81 0 3.87 3.13 7 7 7 .63 0 1.23-.08 1.81-.24z" fill="#e6e9ed"/><path d="m62 19c0 3.01-.78 5.84-2.16 8.28l-8.08-6.47c.16-.58.24-1.18.24-1.81 0-3.87-3.13-7-7-7-.63 0-1.23.08-1.81.24l-6.47-8.08c2.44-1.38 5.27-2.16 8.28-2.16 9.39 0 17 7.61 17 17z" fill="#e6e9ed"/><path d="m52 19c0 .63-.08 1.23-.24 1.81-.32 1.21-.95 2.28-1.81 3.14s-1.93 1.49-3.14 1.81c-.58.16-1.18.24-1.81.24-3.87 0-7-3.13-7-7 0-.63.08-1.23.24-1.81.32-1.21.95-2.28 1.81-3.14s1.93-1.49 3.14-1.81c.58-.16 1.18-.24 1.81-.24 3.87 0 7 3.13 7 7zm-4 0c0-1.66-1.34-3-3-3s-3 1.34-3 3 1.34 3 3 3 3-1.34 3-3z" fill="#fcd770"/><g fill="#5cd6b3"><path d="m32.98 6.98 7.07 7.07c-.86.86-1.49 1.93-1.81 3.14l-8.08-6.47c.76-1.38 1.71-2.63 2.82-3.74z"/><path d="m36.72 4.16 6.47 8.08c-1.21.32-2.28.95-3.14 1.81l-7.07-7.07c1.11-1.11 2.36-2.06 3.74-2.82z"/><path d="m49.95 23.95 7.07 7.07c-1.11 1.11-2.36 2.06-3.74 2.82l-6.47-8.08c1.21-.32 2.28-.95 3.14-1.81z"/><path d="m51.76 20.81 8.08 6.47c-.76 1.38-1.71 2.63-2.82 3.74l-7.07-7.07c.86-.86 1.49-1.93 1.81-3.14z"/><path d="m58 49h-5v13h-8v-13h-5l9-9z"/></g><path d="m28.75 24h-23.75c-.83 0-1.58-.34-2.12-.88s-.88-1.29-.88-2.12c0-1.66 1.34-3 3-3h23.03c-.02.33-.03.67-.03 1 0 1.74.27 3.42.75 5z" fill="#f0d0b4"/><path d="m5 24h23.75 4.25c1.66 0 3 1.34 3 3v6.42 25.58c0 1.66-1.34 3-3 3h-28c-1.66 0-3-1.34-3-3v-38c0 .83.34 1.58.88 2.12s1.29.88 2.12.88z" fill="#cf9e76"/><path d="m6 53v-24c0-.55.45-1 1-1h24c.55 0 1 .45 1 1v24c0 .55-.45 1-1 1h-24c-.55 0-1-.45-1-1z" fill="#e6e9ed"/><circle cx="19" cy="41" fill="#69d6f4" r="9"/><path d="m45 23c2.206 0 4-1.794 4-4s-1.794-4-4-4-4 1.794-4 4 1.794 4 4 4zm0-6c1.103 0 2 .897 2 2s-.897 2-2 2-2-.897-2-2 .897-2 2-2z"/><path d="m45 37c9.925 0 18-8.075 18-18s-8.075-18-18-18c-9.249 0-16.883 7.014-17.882 16h-22.118c-2.206 0-4 1.794-4 4v38c0 2.206 1.794 4 4 4h28c2.206 0 4-1.794 4-4v-23.883c2.476 1.23 5.207 1.883 8 1.883zm-7.208-21.447-6.32-5.057c.461-.73.978-1.419 1.547-2.064l5.67 5.67c-.349.449-.649.934-.897 1.451zm2.31-2.865-5.67-5.67c.645-.569 1.334-1.086 2.064-1.547l5.057 6.321c-.517.248-1.002.548-1.451.896zm4.898.312c3.309 0 6 2.691 6 6s-2.691 6-6 6-6-2.691-6-6 2.691-6 6-6zm7.208 9.447 6.32 5.057c-.461.73-.977 1.419-1.547 2.063l-5.67-5.67c.349-.447.649-.933.897-1.45zm-2.311 2.865 5.67 5.67c-.645.569-1.334 1.086-2.064 1.547l-5.057-6.321c.518-.248 1.003-.548 1.451-.896zm11.103-6.312c0 2.402-.547 4.673-1.5 6.72l-6.633-5.307c.083-.46.133-.93.133-1.413 0-4.411-3.589-8-8-8-.483 0-.953.05-1.413.133l-5.307-6.634c2.047-.952 4.318-1.499 6.72-1.499 8.822 0 16 7.178 16 16zm-30.5-6.72 6.633 5.307c-.083.46-.133.93-.133 1.413 0 4.411 3.589 8 8 8 .483 0 .953-.05 1.413-.133l5.307 6.633c-2.047.953-4.318 1.5-6.72 1.5-2.823 0-5.574-.748-8-2.151v-5.849c0-2.206-1.794-4-4-4h-3.485c-.335-1.302-.515-2.642-.515-4 0-2.402.547-4.673 1.5-6.72zm-25.5 6.72h22c0 1.353.151 2.693.448 4h-22.448c-1.103 0-2-.897-2-2s.897-2 2-2zm30 40c0 1.103-.897 2-2 2h-28c-1.103 0-2-.897-2-2v-34.537c.589.342 1.272.537 2 .537h28c1.103 0 2 .897 2 2z"/><path d="m57 19h2c0-.721-.055-1.444-.165-2.152l-1.977.305c.095.607.142 1.229.142 1.847z"/><path d="m56.421 15.308 1.903-.615c-1.872-5.797-7.227-9.693-13.324-9.693v2c5.227 0 9.816 3.339 11.421 8.308z"/><path d="m31 27h-24c-1.103 0-2 .897-2 2v24c0 1.103.897 2 2 2h24c1.103 0 2-.897 2-2v-24c0-1.103-.897-2-2-2zm-24 26v-24h24l.001 24z"/><path d="m37.586 50h6.414v13h10v-13h6.414l-11.414-11.414zm14.414-2v13h-6v-13h-3.586l6.586-6.586 6.586 6.586z"/><path d="m19 31c-5.514 0-10 4.486-10 10s4.486 10 10 10 10-4.486 10-10-4.486-10-10-10zm0 18c-.313 0-.983-1.023-1.462-3h2.924c-.479 1.977-1.149 3-1.462 3zm-1.819-5c-.077-.614-.134-1.277-.161-2h3.962c-.027.723-.085 1.386-.161 2zm1.819-11c.313 0 .983 1.023 1.462 3h-2.924c.479-1.977 1.149-3 1.462-3zm1.819 5c.077.614.134 1.277.161 2h-3.962c.027-.723.085-1.386.161-2zm-5.8 2h-3.95c.088-.698.263-1.369.52-2h3.579c-.074.657-.125 1.327-.149 2zm-3.95 2h3.95c.024.673.075 1.343.149 2h-3.579c-.256-.631-.432-1.302-.52-2zm11.912 0h3.95c-.088.698-.263 1.369-.52 2h-3.579c.074-.657.125-1.327.149-2zm0-2c-.024-.673-.075-1.343-.149-2h3.579c.256.631.432 1.302.52 2zm2.254-4h-2.719c-.192-.919-.44-1.771-.752-2.498 1.373.508 2.57 1.377 3.471 2.498zm-8.999-2.498c-.312.727-.56 1.579-.752 2.498h-2.719c.901-1.121 2.098-1.99 3.471-2.498zm-3.471 12.498h2.719c.192.919.44 1.771.752 2.498-1.373-.508-2.57-1.377-3.471-2.498zm8.999 2.498c.312-.727.56-1.579.752-2.498h2.719c-.901 1.121-2.098 1.99-3.471 2.498z"/><path d="m31 57h2v2h-2z"/><path d="m23 57h2v2h-2z"/><path d="m27 57h2v2h-2z"/><path d="m9 31h2v2h-2z"/><path d="m27 31h2v2h-2z"/><path d="m27 49h2v2h-2z"/><path d="m9 49h2v2h-2z"/></svg>