<svg height="496pt" viewBox="0 0 496.8 496" width="496pt" xmlns="http://www.w3.org/2000/svg"><path d="m488.800781 161.601562c0 4.476563-1.199219 8.796876-3.441406 12.71875l-24.640625 42.078126h-59.917969l40.640625-67.757813c4.558594-7.601563 12.796875-12.242187 21.597656-12.242187h.554688c13.925781 0 25.207031 11.28125 25.207031 25.203124zm0 0" fill="#ffeaa7"/><path d="m176.800781 296.398438h162.398438c8.488281 0 16.242187-4.398438 20.5625-11.679688l21.839843-36.320312h60.40625l-49.207031 84.160156c-4.320312 7.28125-12.242187 11.839844-20.722656 11.839844h-339.277344c-13.28125 0-24-10.71875-24-24 0-6.636719 2.71875-12.636719 7.039063-16.957032 4.320312-4.320312 10.320312-7.042968 16.960937-7.042968zm0 0" fill="#ffeaa7"/><path d="m152.800781 408.398438h96v32h-96zm0 0" fill="#e6e9ed"/><path d="m152.800781 408.398438v32h-98.640625l8.878906-32zm0 0" fill="#b4dd7f"/><path d="m338.558594 408.398438 8.882812 32h-98.640625v-32zm0 0" fill="#b4dd7f"/><g fill="#e6e9ed"><path d="m392.398438 470.71875c.242187 1.121094.402343 2.242188.402343 3.441406 0 7.839844-6.402343 14.238282-14.242187 14.238282h-6.957032c-6.402343 0-12-4.238282-13.679687-10.398438l-10.480469-37.601562-8.882812-32-17.757813-64h40zm0 0"/><path d="m80.800781 344.398438-17.761719 64-8.878906 32-10.480468 37.601562c-1.679688 6.160156-7.28125 10.398438-13.679688 10.398438h-6.960938c-7.839843 0-14.238281-6.398438-14.238281-14.238282 0-1.199218.152344-2.320312.398438-3.441406l31.601562-126.320312zm0 0"/><path d="m460.71875 216.398438-18.71875 32h-184.640625c-5.359375 0-10.320313 2.640624-13.28125 7.121093l-27.277344 40.878907h-40l34-56.71875c8.71875-14.398438 24.320313-23.28125 41.199219-23.28125zm0 0"/></g><path d="m160.800781 123.839844v172.558594h-32v-172.558594c4.878907-2.238282 10.320313-3.441406 16-3.441406 5.679688 0 11.121094 1.203124 16 3.441406zm0 0" fill="#dfb28b"/><path d="m144.800781 8.398438s48 40 48 144h-8l-5.28125-10.558594c-3.28125-6.558594-8.320312-11.917969-14.320312-15.679688-1.359375-.878906-2.871094-1.601562-4.398438-2.320312-4.878906-2.238282-10.320312-3.441406-16-3.441406-5.679687 0-11.121093 1.203124-16 3.441406-8 3.679687-14.640625 9.921875-18.722656 18l-5.277344 10.558594h-8c0-104 48-144 48-144zm0 0" fill="#ffeaa7"/><path d="m272.640625 109.601562 8.160156 34.796876-8 8-5.28125-10.558594c-3.28125-6.558594-8.320312-11.917969-14.320312-15.679688-6-3.679687-13.039063-5.761718-20.398438-5.761718-14.722656 0-28.160156 8.320312-34.722656 21.441406l-5.277344 10.558594c0-104-48-144-48-144 60.960938 0 113.839844 41.921874 127.839844 101.203124zm0 0" fill="#ff826e"/><path d="m144.800781 8.398438s-48 40-48 144l-5.28125-10.558594c-3.28125-6.558594-8.320312-11.917969-14.320312-15.679688-6-3.679687-13.039063-5.761718-20.398438-5.761718-14.722656 0-28.160156 8.320312-34.722656 21.441406l-5.277344 10.558594-8-8 8.152344-34.796876c7.046875-29.679687 23.6875-54.960937 46.328125-72.800781 22.558594-17.921875 51.039062-28.402343 81.519531-28.402343zm0 0" fill="#ff826e"/><path d="m399.671875 336.558594 92.585937-158.230469c2.972657-5.082031 4.542969-10.871094 4.542969-16.753906 0-18.292969-14.878906-33.175781-33.746093-33.175781-11.582032 0-22.488282 6.167968-28.453126 16.105468l-38.328124 63.894532h-144.296876c-19.550781 0-37.953124 10.417968-48.023437 27.1875l-31.679687 52.8125h-3.472657v-148.421876c1.34375 1.6875 2.582031 3.480469 3.574219 5.472657l7.480469 14.949219h17.886719l7.480468-14.957032c5.257813-10.511718 15.816406-17.042968 27.578125-17.042968 11.757813 0 22.320313 6.53125 27.574219 17.042968l10.226562 20.460938 19-19-9.195312-39.101563c-14.878906-63.234375-70.644531-107.402343-135.605469-107.402343-64.960937 0-120.730469 44.167968-135.609375 107.402343l-9.191406 39.101563 19 19 10.222656-20.460938c5.257813-10.511718 15.816406-17.042968 27.578125-17.042968 11.757813 0 22.320313 6.53125 27.574219 17.042968l7.480469 14.957032h17.886719l7.480468-14.957032c.992188-1.992187 2.234375-3.785156 3.578125-5.464844v148.421876h-88c-17.648437 0-32 14.355468-32 32 0 16.898437 13.199219 30.632812 29.808594 31.777343l-29.152344 116.59375c-.441406 1.757813-.65625 3.566407-.65625 5.382813 0 12.261718 9.984375 22.246094 22.246094 22.246094h6.921875c9.960938 0 18.773438-6.695313 21.4375-16.292969l8.808594-31.707031h281.167968l8.808594 31.707031c2.664063 9.597656 11.480469 16.292969 21.441406 16.292969h6.917969c12.265625 0 22.25-9.984376 22.25-22.246094 0-1.816406-.214843-3.632813-.664062-5.398438l-29.097657-116.355468h1.007813c11.320313 0 21.914063-6.070313 27.625-15.839844zm48.648437-183.816406c3.085938-5.148438 8.734376-8.34375 15.3125-8.34375 9.464844 0 17.167969 7.707031 17.167969 17.175781 0 3.050781-.816406 6.050781-2.351562 8.671875l-22.320313 38.152344h-41.199218zm-230.648437 91.082031c7.199219-11.984375 20.335937-19.425781 34.304687-19.425781h194.785157l-9.363281 16h-180.039063c-8.039063 0-15.503906 4-19.96875 10.691406l-24.871094 37.308594h-21.589843zm149.800781 12.574219-14.535156 24.234374c-2.882812 4.792969-8.136719 7.765626-13.722656 7.765626h-107.472656l18.960937-28.4375c1.488281-2.226563 3.976563-3.5625 6.65625-3.5625zm-102.640625-144.933594 4.273438 18.144531c-8.777344-10.800781-21.953125-17.210937-36.304688-17.210937-12.753906 0-24.527343 5.128906-33.152343 13.839843-4.542969-55.839843-22.792969-90.359375-35.929688-108.328125 49.144531 7.515625 89.417969 43.84375 101.113281 93.554688zm-208.03125.933594c-14.351562 0-27.527343 6.410156-36.304687 17.210937l4.273437-18.144531c11.695313-49.710938 51.964844-86.039063 101.109375-93.5625-13.136718 17.96875-31.382812 52.496094-35.925781 108.328125-8.625-8.703125-20.402344-13.832031-33.152344-13.832031zm48.542969 21.761718c3.929688-66.40625 28.601562-101.746094 39.457031-114.25 10.855469 12.503906 35.527344 47.84375 39.457031 114.25-8.546874-13.496094-23.226562-21.761718-39.457031-21.761718-16.234375 0-30.914062 8.265624-39.457031 21.761718zm31.457031-4.6875c2.566407-.679687 5.246094-1.074218 8-1.074218 2.75 0 5.429688.394531 8 1.074218v158.925782h-16zm-120 190.925782c0-8.824219 7.175781-16 16-16h306.414063c11.175781 0 21.695312-5.949219 27.441406-15.535157l19.472656-32.464843h41.910156l-42.175781 72.082031c-2.855469 4.878906-8.152343 7.917969-13.816406 7.917969h-339.246094c-8.824219 0-16-7.175782-16-16zm224 96v16h-80v-16zm-167.25-16 13.335938-48h227.832031l13.335938 48zm-37.566406 75.433593c-.738281 2.6875-3.214844 4.566407-6.015625 4.566407h-6.921875c-3.4375 0-6.246094-2.796876-6.246094-6.246094 0-.511719.0625-1.03125.175781-1.511719l30.0625-120.242187h23.234376zm33.121094-59.433593h75.695312v16h-80.136719zm187.695312 16v-16h75.695313l4.449218 16zm127.816407 40.226562c.117187.496094.183593 1.015625.183593 1.527344 0 3.449218-2.808593 6.246094-6.25 6.246094h-6.917969c-2.800781 0-5.273437-1.878907-6.015624-4.574219l-34.289063-123.425781h23.230469zm0 0"/></svg>